<svg width="2048" height="2048" xmlns="http://www.w3.org/2000/svg" version="1.1" xml:space="preserve">
 <desc>Created with Fabric.js 5.2.4</desc>

 <g>
  <title>Layer 1</title>
  <rect x="0" y="0" width="100%" height="100%" fill="transparent" id="svg_1"/>
  <g transform="matrix(0 0 0 0 0 0)" id="eee7277f-06ca-44b5-b5d7-584a717c9905"/>
  <g transform="matrix(1 0 0 1 1024 1024)" id="93a8c486-907c-432b-ae7c-80bac65b39bb">
   <rect vector-effect="non-scaling-stroke" x="-1024" y="-1024" width="2048" height="2048" stroke=" none" stroke-dasharray=" none" stroke-linecap=" butt" stroke-dashoffset="0" stroke-linejoin=" miter" stroke-miterlimit="4" fill=" rgb(255,255,255)" fill-rule=" nonzero" id="svg_2"/>
  </g>
  <g fill-opacity="0" transform="matrix(1.9 0 0 1.9 1024 1024)" id="svg_3">
   <rect vector-effect="non-scaling-stroke" x="-540" y="-540" width="1080" height="1080" stroke=" none" stroke-dasharray=" none" stroke-linecap=" butt" stroke-dashoffset="0" stroke-linejoin=" miter" stroke-miterlimit="4" fill="#f3e8eb" fill-rule=" nonzero" id="svg_4"/>
  </g>
  <g transform="matrix(4.19 0 0 4.29 275.37 1107.19)" id="svg_5">
   <path vector-effect="non-scaling-stroke" d="m43.57,-36.75c0.42336,-0.01365 0.82255,0.1969 1.05036,0.554c0.2278,0.3571 0.25047,0.80785 0.05964,1.186c-1.37567,3.13242 -0.07493,6.79441 2.96847,8.35717c3.04341,1.56276 6.77742,0.48606 8.52153,-2.45717c0.30219,-0.58077 1.01411,-0.81214 1.6,-0.52c0.28,0.14 0.49,0.39 0.59,0.7c0.08,0.27 0.05,0.6 -0.1,0.88c-1.06505,2.07928 -2.91484,3.64837 -5.14,4.36c-2.22768,0.72537 -4.65276,0.53143 -6.73684,-0.53878c-2.08408,-1.0702 -3.6547,-2.9281 -4.36316,-5.16122c-0.7203,-2.22274 -0.52599,-4.6408 0.54,-6.72c0.1923,-0.37918 0.57514,-0.6242 1,-0.64l0.01,0zm-100,0c0.42336,-0.01365 0.82255,0.1969 1.05036,0.554c0.2278,0.3571 0.25047,0.80785 0.05964,1.186c-1.61135,3.1711 -0.36066,7.04825 2.8,8.68c3.16581,1.61433 7.0411,0.37317 8.68,-2.78c0.30219,-0.58077 1.01411,-0.81214 1.6,-0.52c0.3,0.14 0.5,0.39 0.6,0.7c0.08,0.27 0.05,0.6 -0.1,0.88c-1.06416,2.07998 -2.9143,3.64936 -5.14,4.36c-2.22773,0.72257 -4.65158,0.52732 -6.73493,-0.5425c-2.08335,-1.06983 -3.65431,-2.92598 -4.36507,-5.1575c-0.7203,-2.22274 -0.52599,-4.6408 0.54,-6.72c0.1923,-0.37918 0.57514,-0.6242 1,-0.64l0.01,0zm61.5,15.26c1.84,0.06 3.58,0.76 4.98,1.99c0.28311,0.25342 0.41223,0.63696 0.34,1.01c-0.09641,0.47592 -0.49601,0.83066 -0.98,0.87c-0.29,0.02 -0.56,-0.07 -0.78,-0.27c-2.43343,-1.91572 -5.93916,-1.5987 -7.98945,0.72248c-2.05029,2.32118 -1.93205,5.83923 0.26945,8.01752c0.21779,0.18212 0.35165,0.44536 0.37054,0.72863c0.01888,0.28327 -0.07886,0.56195 -0.27054,0.77137c-0.2,0.22 -0.45,0.35 -0.74,0.37c-0.28,0.02 -0.56,-0.08 -0.77,-0.27c-1.5892,-1.39556 -2.5542,-3.36877 -2.68,-5.48c-0.14503,-2.11306 0.56236,-4.19618 1.96413,-5.78398c1.40177,-1.5878 3.38113,-2.54797 5.49587,-2.66602c0.26,-0.02 0.53,-0.02 0.79,-0.01zm-7.18,23.34c3.62977,-0.17595 7.03703,1.75168 8.75583,4.95354c1.7188,3.20185 1.44257,7.10684 -0.70986,10.03485c-2.15242,2.92801 -5.79712,4.35679 -9.36597,3.67161c-4.75925,-0.81856 -8.12398,-5.11018 -7.78322,-9.92727c0.34076,-4.81709 4.27613,-8.5923 9.10322,-8.73273zm0.06,1.78c-4.20841,0.12979 -7.51479,3.64659 -7.385,7.855c0.12979,4.20841 3.64659,7.51479 7.855,7.385c4.20841,-0.12979 7.51479,-3.64659 7.385,-7.855c-0.12979,-4.20841 -3.64659,-7.51479 -7.855,-7.385zm-21.4,16.73l4.83,9.23l-13.73,7.17l-4.82,-9.22l13.72,-7.18z" stroke-linecap=" butt" stroke=" none" stroke-dasharray=" none" stroke-dashoffset="0" stroke-linejoin=" miter" stroke-miterlimit="4" fill=" rgb(242,144,58)" fill-rule=" nonzero" id="svg_6"/>
  </g>
  <g transform="matrix(0 5.48 -5.21 0 769 1150.61)" id="svg_7">
   <path vector-effect="non-scaling-stroke" d="m6.31,37.34c0.18225,1.09076 1.21424,1.82725 2.305,1.645c1.09076,-0.18225 1.82725,-1.21424 1.645,-2.305c-0.18225,-1.09076 -1.21424,-1.82725 -2.305,-1.645c-1.09076,0.18225 -1.82725,1.21424 -1.645,2.305zm-38.15,-17.14c1.29847,1.14904 3.26694,1.08901 4.49298,-0.13702c1.22603,-1.22604 1.28606,-3.19451 0.13702,-4.49298c-1.27993,-1.27518 -3.35007,-1.27518 -4.63,0c-0.61741,0.61215 -0.96471,1.44556 -0.96471,2.315c0,0.86944 0.3473,1.70285 0.96471,2.315zm52.8,-52.54c0.68957,3.10984 3.69244,5.13605 6.83433,4.61151c3.14189,-0.52453 5.32371,-3.41632 4.96567,-6.58151c-0.68957,-3.10984 -3.69244,-5.13605 -6.83433,-4.61151c-3.14189,0.52453 -5.32371,3.41632 -4.96567,6.58151z" stroke-linecap=" butt" stroke=" none" stroke-dasharray=" none" stroke-dashoffset="0" stroke-linejoin=" miter" stroke-miterlimit="4" fill=" rgb(90,140,140)" fill-rule=" nonzero" id="svg_8"/>
  </g>
  <g transform="matrix(6.37 0 0 5.75 613.44 73.48)" id="svg_9">
   <path vector-effect="non-scaling-stroke" d="m25.23,5.65c7.49727,0.3148 13.3198,6.64773 13.005,14.145c-0.3148,7.49727 -6.64773,13.3198 -14.145,13.005c-7.4945,-0.3148 -13.3148,-6.6455 -13,-14.14c0.3148,-7.4945 6.6455,-13.3148 14.14,-13l0,-0.01zm-53.54,-38.46l-1.67,4.77l-1.68,4.78l-3.3,-3.84l-3.28,-3.85l4.97,-0.93l4.96,-0.93zm54.32,15.72l1.76,4.73l1.78,4.74l-4.99,-0.83l-4.99,-0.84l3.22,-3.9l3.22,-3.9z" stroke-linecap=" butt" stroke=" none" stroke-dasharray=" none" stroke-dashoffset="0" stroke-linejoin=" miter" stroke-miterlimit="4" fill=" rgb(225,226,167)" fill-rule=" nonzero" id="svg_10"/>
  </g>
  <g transform="matrix(0 6.37 -5.75 0 217.67 1698.1)" id="svg_11">
   <path vector-effect="non-scaling-stroke" d="m25.23,5.65c7.49727,0.3148 13.3198,6.64773 13.005,14.145c-0.3148,7.49727 -6.64773,13.3198 -14.145,13.005c-7.4945,-0.3148 -13.3148,-6.6455 -13,-14.14c0.3148,-7.4945 6.6455,-13.3148 14.14,-13l0,-0.01zm-53.54,-38.46l-1.67,4.77l-1.68,4.78l-3.3,-3.84l-3.28,-3.85l4.97,-0.93l4.96,-0.93zm54.32,15.72l1.76,4.73l1.78,4.74l-4.99,-0.83l-4.99,-0.84l3.22,-3.9l3.22,-3.9z" stroke-linecap=" butt" stroke=" none" stroke-dasharray=" none" stroke-dashoffset="0" stroke-linejoin=" miter" stroke-miterlimit="4" fill=" rgb(225,226,167)" fill-rule=" nonzero" id="svg_12"/>
  </g>
  <g transform="matrix(4.5 4.5 -4.07 4.07 1232.54 1627.36)" id="svg_13">
   <path vector-effect="non-scaling-stroke" d="m25.23,5.65c7.49727,0.3148 13.3198,6.64773 13.005,14.145c-0.3148,7.49727 -6.64773,13.3198 -14.145,13.005c-7.4945,-0.3148 -13.3148,-6.6455 -13,-14.14c0.3148,-7.4945 6.6455,-13.3148 14.14,-13l0,-0.01zm-53.54,-38.46l-1.67,4.77l-1.68,4.78l-3.3,-3.84l-3.28,-3.85l4.97,-0.93l4.96,-0.93zm54.32,15.72l1.76,4.73l1.78,4.74l-4.99,-0.83l-4.99,-0.84l3.22,-3.9l3.22,-3.9z" stroke-linecap=" butt" stroke=" none" stroke-dasharray=" none" stroke-dashoffset="0" stroke-linejoin=" miter" stroke-miterlimit="4" fill=" rgb(225,226,167)" fill-rule=" nonzero" id="svg_14"/>
  </g>
  <g transform="matrix(0 5.48 -5.21 0 222.39 225.84)" id="svg_15">
   <path vector-effect="non-scaling-stroke" d="m6.31,37.34c0.18225,1.09076 1.21424,1.82725 2.305,1.645c1.09076,-0.18225 1.82725,-1.21424 1.645,-2.305c-0.18225,-1.09076 -1.21424,-1.82725 -2.305,-1.645c-1.09076,0.18225 -1.82725,1.21424 -1.645,2.305zm-38.15,-17.14c1.29847,1.14904 3.26694,1.08901 4.49298,-0.13702c1.22603,-1.22604 1.28606,-3.19451 0.13702,-4.49298c-1.27993,-1.27518 -3.35007,-1.27518 -4.63,0c-0.61741,0.61215 -0.96471,1.44556 -0.96471,2.315c0,0.86944 0.3473,1.70285 0.96471,2.315zm52.8,-52.54c0.68957,3.10984 3.69244,5.13605 6.83433,4.61151c3.14189,-0.52453 5.32371,-3.41632 4.96567,-6.58151c-0.68957,-3.10984 -3.69244,-5.13605 -6.83433,-4.61151c-3.14189,0.52453 -5.32371,3.41632 -4.96567,6.58151z" stroke-linecap=" butt" stroke=" none" stroke-dasharray=" none" stroke-dashoffset="0" stroke-linejoin=" miter" stroke-miterlimit="4" fill=" rgb(90,140,140)" fill-rule=" nonzero" id="svg_16"/>
  </g>
  <g transform="matrix(-4.19 0 0 -4.29 300.24 186.67)" id="svg_17">
   <path vector-effect="non-scaling-stroke" d="m43.57,-36.75c0.42336,-0.01365 0.82255,0.1969 1.05036,0.554c0.2278,0.3571 0.25047,0.80785 0.05964,1.186c-1.37567,3.13242 -0.07493,6.79441 2.96847,8.35717c3.04341,1.56276 6.77742,0.48606 8.52153,-2.45717c0.30219,-0.58077 1.01411,-0.81214 1.6,-0.52c0.28,0.14 0.49,0.39 0.59,0.7c0.08,0.27 0.05,0.6 -0.1,0.88c-1.06505,2.07928 -2.91484,3.64837 -5.14,4.36c-2.22768,0.72537 -4.65276,0.53143 -6.73684,-0.53878c-2.08408,-1.0702 -3.6547,-2.9281 -4.36316,-5.16122c-0.7203,-2.22274 -0.52599,-4.6408 0.54,-6.72c0.1923,-0.37918 0.57514,-0.6242 1,-0.64l0.01,0zm-100,0c0.42336,-0.01365 0.82255,0.1969 1.05036,0.554c0.2278,0.3571 0.25047,0.80785 0.05964,1.186c-1.61135,3.1711 -0.36066,7.04825 2.8,8.68c3.16581,1.61433 7.0411,0.37317 8.68,-2.78c0.30219,-0.58077 1.01411,-0.81214 1.6,-0.52c0.3,0.14 0.5,0.39 0.6,0.7c0.08,0.27 0.05,0.6 -0.1,0.88c-1.06416,2.07998 -2.9143,3.64936 -5.14,4.36c-2.22773,0.72257 -4.65158,0.52732 -6.73493,-0.5425c-2.08335,-1.06983 -3.65431,-2.92598 -4.36507,-5.1575c-0.7203,-2.22274 -0.52599,-4.6408 0.54,-6.72c0.1923,-0.37918 0.57514,-0.6242 1,-0.64l0.01,0zm61.5,15.26c1.84,0.06 3.58,0.76 4.98,1.99c0.28311,0.25342 0.41223,0.63696 0.34,1.01c-0.09641,0.47592 -0.49601,0.83066 -0.98,0.87c-0.29,0.02 -0.56,-0.07 -0.78,-0.27c-2.43343,-1.91572 -5.93916,-1.5987 -7.98945,0.72248c-2.05029,2.32118 -1.93205,5.83923 0.26945,8.01752c0.21779,0.18212 0.35165,0.44536 0.37054,0.72863c0.01888,0.28327 -0.07886,0.56195 -0.27054,0.77137c-0.2,0.22 -0.45,0.35 -0.74,0.37c-0.28,0.02 -0.56,-0.08 -0.77,-0.27c-1.5892,-1.39556 -2.5542,-3.36877 -2.68,-5.48c-0.14503,-2.11306 0.56236,-4.19618 1.96413,-5.78398c1.40177,-1.5878 3.38113,-2.54797 5.49587,-2.66602c0.26,-0.02 0.53,-0.02 0.79,-0.01zm-7.18,23.34c3.62977,-0.17595 7.03703,1.75168 8.75583,4.95354c1.7188,3.20185 1.44257,7.10684 -0.70986,10.03485c-2.15242,2.92801 -5.79712,4.35679 -9.36597,3.67161c-4.75925,-0.81856 -8.12398,-5.11018 -7.78322,-9.92727c0.34076,-4.81709 4.27613,-8.5923 9.10322,-8.73273zm0.06,1.78c-4.20841,0.12979 -7.51479,3.64659 -7.385,7.855c0.12979,4.20841 3.64659,7.51479 7.855,7.385c4.20841,-0.12979 7.51479,-3.64659 7.385,-7.855c-0.12979,-4.20841 -3.64659,-7.51479 -7.855,-7.385zm-21.4,16.73l4.83,9.23l-13.73,7.17l-4.82,-9.22l13.72,-7.18z" stroke-linecap=" butt" stroke=" none" stroke-dasharray=" none" stroke-dashoffset="0" stroke-linejoin=" miter" stroke-miterlimit="4" fill=" rgb(242,144,58)" fill-rule=" nonzero" id="svg_18"/>
  </g>
  <g transform="matrix(0 5.48 -5.21 0 815.11 502.02)" id="svg_19">
   <path vector-effect="non-scaling-stroke" d="m6.31,37.34c0.18225,1.09076 1.21424,1.82725 2.305,1.645c1.09076,-0.18225 1.82725,-1.21424 1.645,-2.305c-0.18225,-1.09076 -1.21424,-1.82725 -2.305,-1.645c-1.09076,0.18225 -1.82725,1.21424 -1.645,2.305zm-38.15,-17.14c1.29847,1.14904 3.26694,1.08901 4.49298,-0.13702c1.22603,-1.22604 1.28606,-3.19451 0.13702,-4.49298c-1.27993,-1.27518 -3.35007,-1.27518 -4.63,0c-0.61741,0.61215 -0.96471,1.44556 -0.96471,2.315c0,0.86944 0.3473,1.70285 0.96471,2.315zm52.8,-52.54c0.68957,3.10984 3.69244,5.13605 6.83433,4.61151c3.14189,-0.52453 5.32371,-3.41632 4.96567,-6.58151c-0.68957,-3.10984 -3.69244,-5.13605 -6.83433,-4.61151c-3.14189,0.52453 -5.32371,3.41632 -4.96567,6.58151z" stroke-linecap=" butt" stroke=" none" stroke-dasharray=" none" stroke-dashoffset="0" stroke-linejoin=" miter" stroke-miterlimit="4" fill=" rgb(90,140,140)" fill-rule=" nonzero" id="svg_20"/>
  </g>
  <g transform="matrix(4.19 0 0 4.29 871.73 1860.76)" id="svg_21">
   <path vector-effect="non-scaling-stroke" d="m43.57,-36.75c0.42336,-0.01365 0.82255,0.1969 1.05036,0.554c0.2278,0.3571 0.25047,0.80785 0.05964,1.186c-1.37567,3.13242 -0.07493,6.79441 2.96847,8.35717c3.04341,1.56276 6.77742,0.48606 8.52153,-2.45717c0.30219,-0.58077 1.01411,-0.81214 1.6,-0.52c0.28,0.14 0.49,0.39 0.59,0.7c0.08,0.27 0.05,0.6 -0.1,0.88c-1.06505,2.07928 -2.91484,3.64837 -5.14,4.36c-2.22768,0.72537 -4.65276,0.53143 -6.73684,-0.53878c-2.08408,-1.0702 -3.6547,-2.9281 -4.36316,-5.16122c-0.7203,-2.22274 -0.52599,-4.6408 0.54,-6.72c0.1923,-0.37918 0.57514,-0.6242 1,-0.64l0.01,0zm-100,0c0.42336,-0.01365 0.82255,0.1969 1.05036,0.554c0.2278,0.3571 0.25047,0.80785 0.05964,1.186c-1.61135,3.1711 -0.36066,7.04825 2.8,8.68c3.16581,1.61433 7.0411,0.37317 8.68,-2.78c0.30219,-0.58077 1.01411,-0.81214 1.6,-0.52c0.3,0.14 0.5,0.39 0.6,0.7c0.08,0.27 0.05,0.6 -0.1,0.88c-1.06416,2.07998 -2.9143,3.64936 -5.14,4.36c-2.22773,0.72257 -4.65158,0.52732 -6.73493,-0.5425c-2.08335,-1.06983 -3.65431,-2.92598 -4.36507,-5.1575c-0.7203,-2.22274 -0.52599,-4.6408 0.54,-6.72c0.1923,-0.37918 0.57514,-0.6242 1,-0.64l0.01,0zm61.5,15.26c1.84,0.06 3.58,0.76 4.98,1.99c0.28311,0.25342 0.41223,0.63696 0.34,1.01c-0.09641,0.47592 -0.49601,0.83066 -0.98,0.87c-0.29,0.02 -0.56,-0.07 -0.78,-0.27c-2.43343,-1.91572 -5.93916,-1.5987 -7.98945,0.72248c-2.05029,2.32118 -1.93205,5.83923 0.26945,8.01752c0.21779,0.18212 0.35165,0.44536 0.37054,0.72863c0.01888,0.28327 -0.07886,0.56195 -0.27054,0.77137c-0.2,0.22 -0.45,0.35 -0.74,0.37c-0.28,0.02 -0.56,-0.08 -0.77,-0.27c-1.5892,-1.39556 -2.5542,-3.36877 -2.68,-5.48c-0.14503,-2.11306 0.56236,-4.19618 1.96413,-5.78398c1.40177,-1.5878 3.38113,-2.54797 5.49587,-2.66602c0.26,-0.02 0.53,-0.02 0.79,-0.01zm-7.18,23.34c3.62977,-0.17595 7.03703,1.75168 8.75583,4.95354c1.7188,3.20185 1.44257,7.10684 -0.70986,10.03485c-2.15242,2.92801 -5.79712,4.35679 -9.36597,3.67161c-4.75925,-0.81856 -8.12398,-5.11018 -7.78322,-9.92727c0.34076,-4.81709 4.27613,-8.5923 9.10322,-8.73273zm0.06,1.78c-4.20841,0.12979 -7.51479,3.64659 -7.385,7.855c0.12979,4.20841 3.64659,7.51479 7.855,7.385c4.20841,-0.12979 7.51479,-3.64659 7.385,-7.855c-0.12979,-4.20841 -3.64659,-7.51479 -7.855,-7.385zm-21.4,16.73l4.83,9.23l-13.73,7.17l-4.82,-9.22l13.72,-7.18z" stroke-linecap=" butt" stroke=" none" stroke-dasharray=" none" stroke-dashoffset="0" stroke-linejoin=" miter" stroke-miterlimit="4" fill=" rgb(242,144,58)" fill-rule=" nonzero" id="svg_22"/>
  </g>
  <g transform="matrix(-3.92 1.48 -1.51 -4.02 1188.27 906.86)" id="svg_23">
   <path vector-effect="non-scaling-stroke" d="m43.57,-36.75c0.42336,-0.01365 0.82255,0.1969 1.05036,0.554c0.2278,0.3571 0.25047,0.80785 0.05964,1.186c-1.37567,3.13242 -0.07493,6.79441 2.96847,8.35717c3.04341,1.56276 6.77742,0.48606 8.52153,-2.45717c0.30219,-0.58077 1.01411,-0.81214 1.6,-0.52c0.28,0.14 0.49,0.39 0.59,0.7c0.08,0.27 0.05,0.6 -0.1,0.88c-1.06505,2.07928 -2.91484,3.64837 -5.14,4.36c-2.22768,0.72537 -4.65276,0.53143 -6.73684,-0.53878c-2.08408,-1.0702 -3.6547,-2.9281 -4.36316,-5.16122c-0.7203,-2.22274 -0.52599,-4.6408 0.54,-6.72c0.1923,-0.37918 0.57514,-0.6242 1,-0.64l0.01,0zm-100,0c0.42336,-0.01365 0.82255,0.1969 1.05036,0.554c0.2278,0.3571 0.25047,0.80785 0.05964,1.186c-1.61135,3.1711 -0.36066,7.04825 2.8,8.68c3.16581,1.61433 7.0411,0.37317 8.68,-2.78c0.30219,-0.58077 1.01411,-0.81214 1.6,-0.52c0.3,0.14 0.5,0.39 0.6,0.7c0.08,0.27 0.05,0.6 -0.1,0.88c-1.06416,2.07998 -2.9143,3.64936 -5.14,4.36c-2.22773,0.72257 -4.65158,0.52732 -6.73493,-0.5425c-2.08335,-1.06983 -3.65431,-2.92598 -4.36507,-5.1575c-0.7203,-2.22274 -0.52599,-4.6408 0.54,-6.72c0.1923,-0.37918 0.57514,-0.6242 1,-0.64l0.01,0zm61.5,15.26c1.84,0.06 3.58,0.76 4.98,1.99c0.28311,0.25342 0.41223,0.63696 0.34,1.01c-0.09641,0.47592 -0.49601,0.83066 -0.98,0.87c-0.29,0.02 -0.56,-0.07 -0.78,-0.27c-2.43343,-1.91572 -5.93916,-1.5987 -7.98945,0.72248c-2.05029,2.32118 -1.93205,5.83923 0.26945,8.01752c0.21779,0.18212 0.35165,0.44536 0.37054,0.72863c0.01888,0.28327 -0.07886,0.56195 -0.27054,0.77137c-0.2,0.22 -0.45,0.35 -0.74,0.37c-0.28,0.02 -0.56,-0.08 -0.77,-0.27c-1.5892,-1.39556 -2.5542,-3.36877 -2.68,-5.48c-0.14503,-2.11306 0.56236,-4.19618 1.96413,-5.78398c1.40177,-1.5878 3.38113,-2.54797 5.49587,-2.66602c0.26,-0.02 0.53,-0.02 0.79,-0.01zm-7.18,23.34c3.62977,-0.17595 7.03703,1.75168 8.75583,4.95354c1.7188,3.20185 1.44257,7.10684 -0.70986,10.03485c-2.15242,2.92801 -5.79712,4.35679 -9.36597,3.67161c-4.75925,-0.81856 -8.12398,-5.11018 -7.78322,-9.92727c0.34076,-4.81709 4.27613,-8.5923 9.10322,-8.73273zm0.06,1.78c-4.20841,0.12979 -7.51479,3.64659 -7.385,7.855c0.12979,4.20841 3.64659,7.51479 7.855,7.385c4.20841,-0.12979 7.51479,-3.64659 7.385,-7.855c-0.12979,-4.20841 -3.64659,-7.51479 -7.855,-7.385zm-21.4,16.73l4.83,9.23l-13.73,7.17l-4.82,-9.22l13.72,-7.18z" stroke-linecap=" butt" stroke=" none" stroke-dasharray=" none" stroke-dashoffset="0" stroke-linejoin=" miter" stroke-miterlimit="4" fill=" rgb(242,144,58)" fill-rule=" nonzero" id="svg_24"/>
  </g>
  <g transform="matrix(2.91 0 0 2.64 281.83 648.46)" id="svg_25">
   <path vector-effect="non-scaling-stroke" d="m43.73,0.83c1.6,0 3,-0.98 3.78,-2.61c0.54,-1.13 1.47,-1.8 2.5,-1.8c1.04,0 1.98,0.67 2.51,1.8c0.78,1.64 2.2,2.6 3.8,2.6c1.59,0 3,-0.97 3.78,-2.6c0.53,-1.13 1.47,-1.8 2.5,-1.8c0.86,0 1.65,0.46 2.2,1.27c0.2,0.29 0.58,0.4 0.89,0.25l0.02,0c0.18475,-0.08572 0.32301,-0.24765 0.37871,-0.44355c0.0557,-0.19591 0.02331,-0.40636 -0.08871,-0.57645c-0.73363,-1.17597 -2.01411,-1.89907 -3.4,-1.92c-1.6,0 -3,0.98 -3.78,2.61c-0.54,1.12 -1.48,1.8 -2.5,1.8c-1.04,0 -1.98,-0.68 -2.51,-1.8c-0.78,-1.64 -2.2,-2.6 -3.8,-2.6c-1.59,0 -3,0.97 -3.78,2.6c-0.53,1.12 -1.47,1.8 -2.5,1.8c-1.04,0 -1.97,-0.68 -2.5,-1.8c-0.78,-1.64 -2.2,-2.6 -3.8,-2.6c-1.58,0 -3,0.95 -3.77,2.58c-0.16322,0.33179 -0.05648,0.73313 0.25,0.94c0.37,0.23 0.85,0.08 1.03,-0.3c0.53,-1.12 1.47,-1.8 2.5,-1.8c1.04,0 1.97,0.68 2.5,1.8c0.77,1.63 2.2,2.6 3.79,2.6zm-0.04,-4.91c1.6,0 3.01,-0.98 3.79,-2.61c0.53,-1.13 1.47,-1.8 2.5,-1.8c1.04,0 1.97,0.67 2.5,1.8c0.78,1.64 2.2,2.6 3.8,2.6c1.6,0 3,-0.97 3.78,-2.6c0.54,-1.13 1.47,-1.8 2.5,-1.8c1.04,0 1.98,0.67 2.51,1.8c0.17121,0.35899 0.60101,0.51121 0.96,0.34c0.35899,-0.17121 0.51121,-0.60101 0.34,-0.96c-0.78,-1.64 -2.2,-2.6 -3.8,-2.6c-1.59,0 -3,0.97 -3.78,2.6c-0.54,1.13 -1.47,1.8 -2.5,1.8c-1.04,0 -1.98,-0.67 -2.51,-1.8c-0.78,-1.64 -2.2,-2.6 -3.79,-2.6c-1.6,0 -3.01,0.97 -3.79,2.6c-0.53,1.13 -1.47,1.8 -2.5,1.8c-1.03,0 -1.97,-0.67 -2.5,-1.8c-0.78,-1.64 -2.2,-2.6 -3.8,-2.6c-1.59,0 -3,0.97 -3.78,2.6c-0.17121,0.35899 -0.01899,0.78879 0.34,0.96c0.35899,0.17121 0.78879,0.01899 0.96,-0.34c0.53,-1.13 1.46,-1.8 2.5,-1.8c1.03,0 1.97,0.67 2.5,1.8c0.76,1.63 2.18,2.6 3.77,2.6l0,0.01zm-65,-66.88l-17.09,12.35l-17.05,12.36l19.23,8.6l19.24,8.61l-2.17,-20.95l-2.16,-20.97zm0,100l-17.09,12.35l-17.05,12.36l19.23,8.6l19.24,8.61l-2.17,-20.96l-2.16,-20.96zm-34.96,-28.21c1.6,0 3,-0.98 3.78,-2.61c0.54,-1.13 1.47,-1.8 2.5,-1.8c1.04,0 1.98,0.67 2.51,1.8c0.78,1.64 2.2,2.6 3.8,2.6c1.59,0 3,-0.97 3.78,-2.6c0.53,-1.13 1.47,-1.8 2.5,-1.8c0.86,0 1.65,0.46 2.2,1.27c0.2,0.29 0.57,0.4 0.89,0.25l0.02,0c0.18475,-0.08572 0.32301,-0.24765 0.37871,-0.44355c0.0557,-0.19591 0.02331,-0.40636 -0.08871,-0.57645c-0.73363,-1.17597 -2.01411,-1.89907 -3.4,-1.92c-1.6,0 -3.01,0.98 -3.78,2.61c-0.54,1.12 -1.48,1.8 -2.5,1.8c-1.04,0 -1.98,-0.68 -2.51,-1.8c-0.78,-1.64 -2.2,-2.6 -3.8,-2.6c-1.59,0 -3,0.97 -3.78,2.6c-0.53,1.12 -1.47,1.8 -2.5,1.8c-1.04,0 -1.97,-0.68 -2.5,-1.8c-0.78,-1.64 -2.2,-2.6 -3.8,-2.6c-1.58,0 -3,0.95 -3.77,2.58c-0.16322,0.33179 -0.05648,0.73313 0.25,0.94c0.37,0.23 0.85,0.08 1.03,-0.3c0.53,-1.12 1.47,-1.8 2.5,-1.8c1.04,0 1.97,0.68 2.5,1.8c0.77,1.63 2.19,2.6 3.79,2.6zm-0.04,-4.91c1.6,0 3.01,-0.98 3.79,-2.61c0.53,-1.13 1.47,-1.8 2.5,-1.8c1.04,0 1.97,0.67 2.5,1.8c0.78,1.64 2.2,2.6 3.8,2.6c1.59,0 3,-0.97 3.78,-2.6c0.54,-1.13 1.47,-1.8 2.5,-1.8c1.04,0 1.98,0.67 2.51,1.8c0.17121,0.35899 0.60101,0.51121 0.96,0.34c0.35899,-0.17121 0.51121,-0.60101 0.34,-0.96c-0.78,-1.64 -2.2,-2.6 -3.8,-2.6c-1.59,0 -3,0.97 -3.78,2.6c-0.54,1.13 -1.47,1.8 -2.5,1.8c-1.04,0 -1.98,-0.67 -2.51,-1.8c-0.78,-1.64 -2.2,-2.6 -3.79,-2.6c-1.6,0 -3.01,0.97 -3.79,2.6c-0.53,1.13 -1.47,1.8 -2.5,1.8c-1.03,0 -1.97,-0.67 -2.5,-1.8c-0.78,-1.64 -2.2,-2.6 -3.8,-2.6c-1.59,0 -3,0.97 -3.78,2.6c-0.17121,0.35899 -0.01899,0.78879 0.34,0.96c0.35899,0.17121 0.78879,0.01899 0.96,-0.34c0.53,-1.13 1.46,-1.8 2.5,-1.8c1.03,0 1.97,0.67 2.5,1.8c0.76,1.63 2.17,2.6 3.77,2.6l0,0.01z" stroke-linecap=" butt" stroke=" none" stroke-dasharray=" none" stroke-dashoffset="0" stroke-linejoin=" miter" stroke-miterlimit="4" fill=" rgb(223,52,98)" fill-rule=" nonzero" id="svg_26"/>
  </g>
  <g transform="matrix(-2.51 -1.87 1.69 -2.27 888.85 1302.07)" id="svg_27">
   <path vector-effect="non-scaling-stroke" d="m43.73,0.83c1.6,0 3,-0.98 3.78,-2.61c0.54,-1.13 1.47,-1.8 2.5,-1.8c1.04,0 1.98,0.67 2.51,1.8c0.78,1.64 2.2,2.6 3.8,2.6c1.59,0 3,-0.97 3.78,-2.6c0.53,-1.13 1.47,-1.8 2.5,-1.8c0.86,0 1.65,0.46 2.2,1.27c0.2,0.29 0.58,0.4 0.89,0.25l0.02,0c0.18475,-0.08572 0.32301,-0.24765 0.37871,-0.44355c0.0557,-0.19591 0.02331,-0.40636 -0.08871,-0.57645c-0.73363,-1.17597 -2.01411,-1.89907 -3.4,-1.92c-1.6,0 -3,0.98 -3.78,2.61c-0.54,1.12 -1.48,1.8 -2.5,1.8c-1.04,0 -1.98,-0.68 -2.51,-1.8c-0.78,-1.64 -2.2,-2.6 -3.8,-2.6c-1.59,0 -3,0.97 -3.78,2.6c-0.53,1.12 -1.47,1.8 -2.5,1.8c-1.04,0 -1.97,-0.68 -2.5,-1.8c-0.78,-1.64 -2.2,-2.6 -3.8,-2.6c-1.58,0 -3,0.95 -3.77,2.58c-0.16322,0.33179 -0.05648,0.73313 0.25,0.94c0.37,0.23 0.85,0.08 1.03,-0.3c0.53,-1.12 1.47,-1.8 2.5,-1.8c1.04,0 1.97,0.68 2.5,1.8c0.77,1.63 2.2,2.6 3.79,2.6zm-0.04,-4.91c1.6,0 3.01,-0.98 3.79,-2.61c0.53,-1.13 1.47,-1.8 2.5,-1.8c1.04,0 1.97,0.67 2.5,1.8c0.78,1.64 2.2,2.6 3.8,2.6c1.6,0 3,-0.97 3.78,-2.6c0.54,-1.13 1.47,-1.8 2.5,-1.8c1.04,0 1.98,0.67 2.51,1.8c0.17121,0.35899 0.60101,0.51121 0.96,0.34c0.35899,-0.17121 0.51121,-0.60101 0.34,-0.96c-0.78,-1.64 -2.2,-2.6 -3.8,-2.6c-1.59,0 -3,0.97 -3.78,2.6c-0.54,1.13 -1.47,1.8 -2.5,1.8c-1.04,0 -1.98,-0.67 -2.51,-1.8c-0.78,-1.64 -2.2,-2.6 -3.79,-2.6c-1.6,0 -3.01,0.97 -3.79,2.6c-0.53,1.13 -1.47,1.8 -2.5,1.8c-1.03,0 -1.97,-0.67 -2.5,-1.8c-0.78,-1.64 -2.2,-2.6 -3.8,-2.6c-1.59,0 -3,0.97 -3.78,2.6c-0.17121,0.35899 -0.01899,0.78879 0.34,0.96c0.35899,0.17121 0.78879,0.01899 0.96,-0.34c0.53,-1.13 1.46,-1.8 2.5,-1.8c1.03,0 1.97,0.67 2.5,1.8c0.76,1.63 2.18,2.6 3.77,2.6l0,0.01zm-65,-66.88l-17.09,12.35l-17.05,12.36l19.23,8.6l19.24,8.61l-2.17,-20.95l-2.16,-20.97zm0,100l-17.09,12.35l-17.05,12.36l19.23,8.6l19.24,8.61l-2.17,-20.96l-2.16,-20.96zm-34.96,-28.21c1.6,0 3,-0.98 3.78,-2.61c0.54,-1.13 1.47,-1.8 2.5,-1.8c1.04,0 1.98,0.67 2.51,1.8c0.78,1.64 2.2,2.6 3.8,2.6c1.59,0 3,-0.97 3.78,-2.6c0.53,-1.13 1.47,-1.8 2.5,-1.8c0.86,0 1.65,0.46 2.2,1.27c0.2,0.29 0.57,0.4 0.89,0.25l0.02,0c0.18475,-0.08572 0.32301,-0.24765 0.37871,-0.44355c0.0557,-0.19591 0.02331,-0.40636 -0.08871,-0.57645c-0.73363,-1.17597 -2.01411,-1.89907 -3.4,-1.92c-1.6,0 -3.01,0.98 -3.78,2.61c-0.54,1.12 -1.48,1.8 -2.5,1.8c-1.04,0 -1.98,-0.68 -2.51,-1.8c-0.78,-1.64 -2.2,-2.6 -3.8,-2.6c-1.59,0 -3,0.97 -3.78,2.6c-0.53,1.12 -1.47,1.8 -2.5,1.8c-1.04,0 -1.97,-0.68 -2.5,-1.8c-0.78,-1.64 -2.2,-2.6 -3.8,-2.6c-1.58,0 -3,0.95 -3.77,2.58c-0.16322,0.33179 -0.05648,0.73313 0.25,0.94c0.37,0.23 0.85,0.08 1.03,-0.3c0.53,-1.12 1.47,-1.8 2.5,-1.8c1.04,0 1.97,0.68 2.5,1.8c0.77,1.63 2.19,2.6 3.79,2.6zm-0.04,-4.91c1.6,0 3.01,-0.98 3.79,-2.61c0.53,-1.13 1.47,-1.8 2.5,-1.8c1.04,0 1.97,0.67 2.5,1.8c0.78,1.64 2.2,2.6 3.8,2.6c1.59,0 3,-0.97 3.78,-2.6c0.54,-1.13 1.47,-1.8 2.5,-1.8c1.04,0 1.98,0.67 2.51,1.8c0.17121,0.35899 0.60101,0.51121 0.96,0.34c0.35899,-0.17121 0.51121,-0.60101 0.34,-0.96c-0.78,-1.64 -2.2,-2.6 -3.8,-2.6c-1.59,0 -3,0.97 -3.78,2.6c-0.54,1.13 -1.47,1.8 -2.5,1.8c-1.04,0 -1.98,-0.67 -2.51,-1.8c-0.78,-1.64 -2.2,-2.6 -3.79,-2.6c-1.6,0 -3.01,0.97 -3.79,2.6c-0.53,1.13 -1.47,1.8 -2.5,1.8c-1.03,0 -1.97,-0.67 -2.5,-1.8c-0.78,-1.64 -2.2,-2.6 -3.8,-2.6c-1.59,0 -3,0.97 -3.78,2.6c-0.17121,0.35899 -0.01899,0.78879 0.34,0.96c0.35899,0.17121 0.78879,0.01899 0.96,-0.34c0.53,-1.13 1.46,-1.8 2.5,-1.8c1.03,0 1.97,0.67 2.5,1.8c0.76,1.63 2.17,2.6 3.77,2.6l0,0.01z" stroke-linecap=" butt" stroke=" none" stroke-dasharray=" none" stroke-dashoffset="0" stroke-linejoin=" miter" stroke-miterlimit="4" fill=" rgb(223,52,98)" fill-rule=" nonzero" id="svg_28"/>
  </g>
  <g transform="matrix(6.37 0 0 5.75 1729.68 1465.91)" id="svg_29">
   <path vector-effect="non-scaling-stroke" d="m25.23,5.65c7.49727,0.3148 13.3198,6.64773 13.005,14.145c-0.3148,7.49727 -6.64773,13.3198 -14.145,13.005c-7.4945,-0.3148 -13.3148,-6.6455 -13,-14.14c0.3148,-7.4945 6.6455,-13.3148 14.14,-13l0,-0.01zm-53.54,-38.46l-1.67,4.77l-1.68,4.78l-3.3,-3.84l-3.28,-3.85l4.97,-0.93l4.96,-0.93zm54.32,15.72l1.76,4.73l1.78,4.74l-4.99,-0.83l-4.99,-0.84l3.22,-3.9l3.22,-3.9z" stroke-linecap=" butt" stroke=" none" stroke-dasharray=" none" stroke-dashoffset="0" stroke-linejoin=" miter" stroke-miterlimit="4" fill=" rgb(225,226,167)" fill-rule=" nonzero" id="svg_30"/>
  </g>
  <g transform="matrix(0 5.48 -5.21 0 374.73 1519.02)" id="svg_31">
   <path vector-effect="non-scaling-stroke" d="m6.31,37.34c0.18225,1.09076 1.21424,1.82725 2.305,1.645c1.09076,-0.18225 1.82725,-1.21424 1.645,-2.305c-0.18225,-1.09076 -1.21424,-1.82725 -2.305,-1.645c-1.09076,0.18225 -1.82725,1.21424 -1.645,2.305zm-38.15,-17.14c1.29847,1.14904 3.26694,1.08901 4.49298,-0.13702c1.22603,-1.22604 1.28606,-3.19451 0.13702,-4.49298c-1.27993,-1.27518 -3.35007,-1.27518 -4.63,0c-0.61741,0.61215 -0.96471,1.44556 -0.96471,2.315c0,0.86944 0.3473,1.70285 0.96471,2.315zm52.8,-52.54c0.68957,3.10984 3.69244,5.13605 6.83433,4.61151c3.14189,-0.52453 5.32371,-3.41632 4.96567,-6.58151c-0.68957,-3.10984 -3.69244,-5.13605 -6.83433,-4.61151c-3.14189,0.52453 -5.32371,3.41632 -4.96567,6.58151z" stroke-linecap=" butt" stroke=" none" stroke-dasharray=" none" stroke-dashoffset="0" stroke-linejoin=" miter" stroke-miterlimit="4" fill=" rgb(90,140,140)" fill-rule=" nonzero" id="svg_32"/>
  </g>
  <g transform="matrix(-2.6 0 0 -2.87 1707.3 1067.25)" id="svg_33">
   <path vector-effect="non-scaling-stroke" d="m43.73,0.83c1.6,0 3,-0.98 3.78,-2.61c0.54,-1.13 1.47,-1.8 2.5,-1.8c1.04,0 1.98,0.67 2.51,1.8c0.78,1.64 2.2,2.6 3.8,2.6c1.59,0 3,-0.97 3.78,-2.6c0.53,-1.13 1.47,-1.8 2.5,-1.8c0.86,0 1.65,0.46 2.2,1.27c0.2,0.29 0.58,0.4 0.89,0.25l0.02,0c0.18475,-0.08572 0.32301,-0.24765 0.37871,-0.44355c0.0557,-0.19591 0.02331,-0.40636 -0.08871,-0.57645c-0.73363,-1.17597 -2.01411,-1.89907 -3.4,-1.92c-1.6,0 -3,0.98 -3.78,2.61c-0.54,1.12 -1.48,1.8 -2.5,1.8c-1.04,0 -1.98,-0.68 -2.51,-1.8c-0.78,-1.64 -2.2,-2.6 -3.8,-2.6c-1.59,0 -3,0.97 -3.78,2.6c-0.53,1.12 -1.47,1.8 -2.5,1.8c-1.04,0 -1.97,-0.68 -2.5,-1.8c-0.78,-1.64 -2.2,-2.6 -3.8,-2.6c-1.58,0 -3,0.95 -3.77,2.58c-0.16322,0.33179 -0.05648,0.73313 0.25,0.94c0.37,0.23 0.85,0.08 1.03,-0.3c0.53,-1.12 1.47,-1.8 2.5,-1.8c1.04,0 1.97,0.68 2.5,1.8c0.77,1.63 2.2,2.6 3.79,2.6zm-0.04,-4.91c1.6,0 3.01,-0.98 3.79,-2.61c0.53,-1.13 1.47,-1.8 2.5,-1.8c1.04,0 1.97,0.67 2.5,1.8c0.78,1.64 2.2,2.6 3.8,2.6c1.6,0 3,-0.97 3.78,-2.6c0.54,-1.13 1.47,-1.8 2.5,-1.8c1.04,0 1.98,0.67 2.51,1.8c0.17121,0.35899 0.60101,0.51121 0.96,0.34c0.35899,-0.17121 0.51121,-0.60101 0.34,-0.96c-0.78,-1.64 -2.2,-2.6 -3.8,-2.6c-1.59,0 -3,0.97 -3.78,2.6c-0.54,1.13 -1.47,1.8 -2.5,1.8c-1.04,0 -1.98,-0.67 -2.51,-1.8c-0.78,-1.64 -2.2,-2.6 -3.79,-2.6c-1.6,0 -3.01,0.97 -3.79,2.6c-0.53,1.13 -1.47,1.8 -2.5,1.8c-1.03,0 -1.97,-0.67 -2.5,-1.8c-0.78,-1.64 -2.2,-2.6 -3.8,-2.6c-1.59,0 -3,0.97 -3.78,2.6c-0.17121,0.35899 -0.01899,0.78879 0.34,0.96c0.35899,0.17121 0.78879,0.01899 0.96,-0.34c0.53,-1.13 1.46,-1.8 2.5,-1.8c1.03,0 1.97,0.67 2.5,1.8c0.76,1.63 2.18,2.6 3.77,2.6l0,0.01zm-65,-66.88l-17.09,12.35l-17.05,12.36l19.23,8.6l19.24,8.61l-2.17,-20.95l-2.16,-20.97zm0,100l-17.09,12.35l-17.05,12.36l19.23,8.6l19.24,8.61l-2.17,-20.96l-2.16,-20.96zm-34.96,-28.21c1.6,0 3,-0.98 3.78,-2.61c0.54,-1.13 1.47,-1.8 2.5,-1.8c1.04,0 1.98,0.67 2.51,1.8c0.78,1.64 2.2,2.6 3.8,2.6c1.59,0 3,-0.97 3.78,-2.6c0.53,-1.13 1.47,-1.8 2.5,-1.8c0.86,0 1.65,0.46 2.2,1.27c0.2,0.29 0.57,0.4 0.89,0.25l0.02,0c0.18475,-0.08572 0.32301,-0.24765 0.37871,-0.44355c0.0557,-0.19591 0.02331,-0.40636 -0.08871,-0.57645c-0.73363,-1.17597 -2.01411,-1.89907 -3.4,-1.92c-1.6,0 -3.01,0.98 -3.78,2.61c-0.54,1.12 -1.48,1.8 -2.5,1.8c-1.04,0 -1.98,-0.68 -2.51,-1.8c-0.78,-1.64 -2.2,-2.6 -3.8,-2.6c-1.59,0 -3,0.97 -3.78,2.6c-0.53,1.12 -1.47,1.8 -2.5,1.8c-1.04,0 -1.97,-0.68 -2.5,-1.8c-0.78,-1.64 -2.2,-2.6 -3.8,-2.6c-1.58,0 -3,0.95 -3.77,2.58c-0.16322,0.33179 -0.05648,0.73313 0.25,0.94c0.37,0.23 0.85,0.08 1.03,-0.3c0.53,-1.12 1.47,-1.8 2.5,-1.8c1.04,0 1.97,0.68 2.5,1.8c0.77,1.63 2.19,2.6 3.79,2.6zm-0.04,-4.91c1.6,0 3.01,-0.98 3.79,-2.61c0.53,-1.13 1.47,-1.8 2.5,-1.8c1.04,0 1.97,0.67 2.5,1.8c0.78,1.64 2.2,2.6 3.8,2.6c1.59,0 3,-0.97 3.78,-2.6c0.54,-1.13 1.47,-1.8 2.5,-1.8c1.04,0 1.98,0.67 2.51,1.8c0.17121,0.35899 0.60101,0.51121 0.96,0.34c0.35899,-0.17121 0.51121,-0.60101 0.34,-0.96c-0.78,-1.64 -2.2,-2.6 -3.8,-2.6c-1.59,0 -3,0.97 -3.78,2.6c-0.54,1.13 -1.47,1.8 -2.5,1.8c-1.04,0 -1.98,-0.67 -2.51,-1.8c-0.78,-1.64 -2.2,-2.6 -3.79,-2.6c-1.6,0 -3.01,0.97 -3.79,2.6c-0.53,1.13 -1.47,1.8 -2.5,1.8c-1.03,0 -1.97,-0.67 -2.5,-1.8c-0.78,-1.64 -2.2,-2.6 -3.8,-2.6c-1.59,0 -3,0.97 -3.78,2.6c-0.17121,0.35899 -0.01899,0.78879 0.34,0.96c0.35899,0.17121 0.78879,0.01899 0.96,-0.34c0.53,-1.13 1.46,-1.8 2.5,-1.8c1.03,0 1.97,0.67 2.5,1.8c0.76,1.63 2.17,2.6 3.77,2.6l0,0.01z" stroke-linecap=" butt" stroke=" none" stroke-dasharray=" none" stroke-dashoffset="0" stroke-linejoin=" miter" stroke-miterlimit="4" fill=" rgb(223,52,98)" fill-rule=" nonzero" id="svg_34"/>
  </g>
  <g transform="matrix(0 5.48 -5.21 0 1723.77 1708.1)" id="svg_35">
   <path vector-effect="non-scaling-stroke" d="m6.31,37.34c0.18225,1.09076 1.21424,1.82725 2.305,1.645c1.09076,-0.18225 1.82725,-1.21424 1.645,-2.305c-0.18225,-1.09076 -1.21424,-1.82725 -2.305,-1.645c-1.09076,0.18225 -1.82725,1.21424 -1.645,2.305zm-38.15,-17.14c1.29847,1.14904 3.26694,1.08901 4.49298,-0.13702c1.22603,-1.22604 1.28606,-3.19451 0.13702,-4.49298c-1.27993,-1.27518 -3.35007,-1.27518 -4.63,0c-0.61741,0.61215 -0.96471,1.44556 -0.96471,2.315c0,0.86944 0.3473,1.70285 0.96471,2.315zm52.8,-52.54c0.68957,3.10984 3.69244,5.13605 6.83433,4.61151c3.14189,-0.52453 5.32371,-3.41632 4.96567,-6.58151c-0.68957,-3.10984 -3.69244,-5.13605 -6.83433,-4.61151c-3.14189,0.52453 -5.32371,3.41632 -4.96567,6.58151z" stroke-linecap=" butt" stroke=" none" stroke-dasharray=" none" stroke-dashoffset="0" stroke-linejoin=" miter" stroke-miterlimit="4" fill=" rgb(90,140,140)" fill-rule=" nonzero" id="svg_36"/>
  </g>
  <g transform="matrix(-1.58 -2.7 2.44 -1.43 1069.17 290.07)" id="svg_37">
   <path vector-effect="non-scaling-stroke" d="m43.73,0.83c1.6,0 3,-0.98 3.78,-2.61c0.54,-1.13 1.47,-1.8 2.5,-1.8c1.04,0 1.98,0.67 2.51,1.8c0.78,1.64 2.2,2.6 3.8,2.6c1.59,0 3,-0.97 3.78,-2.6c0.53,-1.13 1.47,-1.8 2.5,-1.8c0.86,0 1.65,0.46 2.2,1.27c0.2,0.29 0.58,0.4 0.89,0.25l0.02,0c0.18475,-0.08572 0.32301,-0.24765 0.37871,-0.44355c0.0557,-0.19591 0.02331,-0.40636 -0.08871,-0.57645c-0.73363,-1.17597 -2.01411,-1.89907 -3.4,-1.92c-1.6,0 -3,0.98 -3.78,2.61c-0.54,1.12 -1.48,1.8 -2.5,1.8c-1.04,0 -1.98,-0.68 -2.51,-1.8c-0.78,-1.64 -2.2,-2.6 -3.8,-2.6c-1.59,0 -3,0.97 -3.78,2.6c-0.53,1.12 -1.47,1.8 -2.5,1.8c-1.04,0 -1.97,-0.68 -2.5,-1.8c-0.78,-1.64 -2.2,-2.6 -3.8,-2.6c-1.58,0 -3,0.95 -3.77,2.58c-0.16322,0.33179 -0.05648,0.73313 0.25,0.94c0.37,0.23 0.85,0.08 1.03,-0.3c0.53,-1.12 1.47,-1.8 2.5,-1.8c1.04,0 1.97,0.68 2.5,1.8c0.77,1.63 2.2,2.6 3.79,2.6zm-0.04,-4.91c1.6,0 3.01,-0.98 3.79,-2.61c0.53,-1.13 1.47,-1.8 2.5,-1.8c1.04,0 1.97,0.67 2.5,1.8c0.78,1.64 2.2,2.6 3.8,2.6c1.6,0 3,-0.97 3.78,-2.6c0.54,-1.13 1.47,-1.8 2.5,-1.8c1.04,0 1.98,0.67 2.51,1.8c0.17121,0.35899 0.60101,0.51121 0.96,0.34c0.35899,-0.17121 0.51121,-0.60101 0.34,-0.96c-0.78,-1.64 -2.2,-2.6 -3.8,-2.6c-1.59,0 -3,0.97 -3.78,2.6c-0.54,1.13 -1.47,1.8 -2.5,1.8c-1.04,0 -1.98,-0.67 -2.51,-1.8c-0.78,-1.64 -2.2,-2.6 -3.79,-2.6c-1.6,0 -3.01,0.97 -3.79,2.6c-0.53,1.13 -1.47,1.8 -2.5,1.8c-1.03,0 -1.97,-0.67 -2.5,-1.8c-0.78,-1.64 -2.2,-2.6 -3.8,-2.6c-1.59,0 -3,0.97 -3.78,2.6c-0.17121,0.35899 -0.01899,0.78879 0.34,0.96c0.35899,0.17121 0.78879,0.01899 0.96,-0.34c0.53,-1.13 1.46,-1.8 2.5,-1.8c1.03,0 1.97,0.67 2.5,1.8c0.76,1.63 2.18,2.6 3.77,2.6l0,0.01zm-65,-66.88l-17.09,12.35l-17.05,12.36l19.23,8.6l19.24,8.61l-2.17,-20.95l-2.16,-20.97zm0,100l-17.09,12.35l-17.05,12.36l19.23,8.6l19.24,8.61l-2.17,-20.96l-2.16,-20.96zm-34.96,-28.21c1.6,0 3,-0.98 3.78,-2.61c0.54,-1.13 1.47,-1.8 2.5,-1.8c1.04,0 1.98,0.67 2.51,1.8c0.78,1.64 2.2,2.6 3.8,2.6c1.59,0 3,-0.97 3.78,-2.6c0.53,-1.13 1.47,-1.8 2.5,-1.8c0.86,0 1.65,0.46 2.2,1.27c0.2,0.29 0.57,0.4 0.89,0.25l0.02,0c0.18475,-0.08572 0.32301,-0.24765 0.37871,-0.44355c0.0557,-0.19591 0.02331,-0.40636 -0.08871,-0.57645c-0.73363,-1.17597 -2.01411,-1.89907 -3.4,-1.92c-1.6,0 -3.01,0.98 -3.78,2.61c-0.54,1.12 -1.48,1.8 -2.5,1.8c-1.04,0 -1.98,-0.68 -2.51,-1.8c-0.78,-1.64 -2.2,-2.6 -3.8,-2.6c-1.59,0 -3,0.97 -3.78,2.6c-0.53,1.12 -1.47,1.8 -2.5,1.8c-1.04,0 -1.97,-0.68 -2.5,-1.8c-0.78,-1.64 -2.2,-2.6 -3.8,-2.6c-1.58,0 -3,0.95 -3.77,2.58c-0.16322,0.33179 -0.05648,0.73313 0.25,0.94c0.37,0.23 0.85,0.08 1.03,-0.3c0.53,-1.12 1.47,-1.8 2.5,-1.8c1.04,0 1.97,0.68 2.5,1.8c0.77,1.63 2.19,2.6 3.79,2.6zm-0.04,-4.91c1.6,0 3.01,-0.98 3.79,-2.61c0.53,-1.13 1.47,-1.8 2.5,-1.8c1.04,0 1.97,0.67 2.5,1.8c0.78,1.64 2.2,2.6 3.8,2.6c1.59,0 3,-0.97 3.78,-2.6c0.54,-1.13 1.47,-1.8 2.5,-1.8c1.04,0 1.98,0.67 2.51,1.8c0.17121,0.35899 0.60101,0.51121 0.96,0.34c0.35899,-0.17121 0.51121,-0.60101 0.34,-0.96c-0.78,-1.64 -2.2,-2.6 -3.8,-2.6c-1.59,0 -3,0.97 -3.78,2.6c-0.54,1.13 -1.47,1.8 -2.5,1.8c-1.04,0 -1.98,-0.67 -2.51,-1.8c-0.78,-1.64 -2.2,-2.6 -3.79,-2.6c-1.6,0 -3.01,0.97 -3.79,2.6c-0.53,1.13 -1.47,1.8 -2.5,1.8c-1.03,0 -1.97,-0.67 -2.5,-1.8c-0.78,-1.64 -2.2,-2.6 -3.8,-2.6c-1.59,0 -3,0.97 -3.78,2.6c-0.17121,0.35899 -0.01899,0.78879 0.34,0.96c0.35899,0.17121 0.78879,0.01899 0.96,-0.34c0.53,-1.13 1.46,-1.8 2.5,-1.8c1.03,0 1.97,0.67 2.5,1.8c0.76,1.63 2.17,2.6 3.77,2.6l0,0.01z" stroke-linecap=" butt" stroke=" none" stroke-dasharray=" none" stroke-dashoffset="0" stroke-linejoin=" miter" stroke-miterlimit="4" fill=" rgb(223,52,98)" fill-rule=" nonzero" id="svg_38"/>
  </g>
  <g transform="matrix(0 5.48 -5.21 0 1228.76 254.96)" id="svg_39">
   <path vector-effect="non-scaling-stroke" d="m6.31,37.34c0.18225,1.09076 1.21424,1.82725 2.305,1.645c1.09076,-0.18225 1.82725,-1.21424 1.645,-2.305c-0.18225,-1.09076 -1.21424,-1.82725 -2.305,-1.645c-1.09076,0.18225 -1.82725,1.21424 -1.645,2.305zm-38.15,-17.14c1.29847,1.14904 3.26694,1.08901 4.49298,-0.13702c1.22603,-1.22604 1.28606,-3.19451 0.13702,-4.49298c-1.27993,-1.27518 -3.35007,-1.27518 -4.63,0c-0.61741,0.61215 -0.96471,1.44556 -0.96471,2.315c0,0.86944 0.3473,1.70285 0.96471,2.315zm52.8,-52.54c0.68957,3.10984 3.69244,5.13605 6.83433,4.61151c3.14189,-0.52453 5.32371,-3.41632 4.96567,-6.58151c-0.68957,-3.10984 -3.69244,-5.13605 -6.83433,-4.61151c-3.14189,0.52453 -5.32371,3.41632 -4.96567,6.58151z" stroke-linecap=" butt" stroke=" none" stroke-dasharray=" none" stroke-dashoffset="0" stroke-linejoin=" miter" stroke-miterlimit="4" fill=" rgb(90,140,140)" fill-rule=" nonzero" id="svg_40"/>
  </g>
  <g transform="matrix(0 6.37 -5.75 0 1782.79 318.69)" id="svg_41">
   <path vector-effect="non-scaling-stroke" d="m25.23,5.65c7.49727,0.3148 13.3198,6.64773 13.005,14.145c-0.3148,7.49727 -6.64773,13.3198 -14.145,13.005c-7.4945,-0.3148 -13.3148,-6.6455 -13,-14.14c0.3148,-7.4945 6.6455,-13.3148 14.14,-13l0,-0.01zm-53.54,-38.46l-1.67,4.77l-1.68,4.78l-3.3,-3.84l-3.28,-3.85l4.97,-0.93l4.96,-0.93zm54.32,15.72l1.76,4.73l1.78,4.74l-4.99,-0.83l-4.99,-0.84l3.22,-3.9l3.22,-3.9z" stroke-linecap=" butt" stroke=" none" stroke-dasharray=" none" stroke-dashoffset="0" stroke-linejoin=" miter" stroke-miterlimit="4" fill=" rgb(225,226,167)" fill-rule=" nonzero" id="svg_42"/>
  </g>
  <g transform="matrix(5.18 -1.78 1.69 4.93 1772.01 517.77)" id="svg_43">
   <path vector-effect="non-scaling-stroke" d="m6.31,37.34c0.18225,1.09076 1.21424,1.82725 2.305,1.645c1.09076,-0.18225 1.82725,-1.21424 1.645,-2.305c-0.18225,-1.09076 -1.21424,-1.82725 -2.305,-1.645c-1.09076,0.18225 -1.82725,1.21424 -1.645,2.305zm-38.15,-17.14c1.29847,1.14904 3.26694,1.08901 4.49298,-0.13702c1.22603,-1.22604 1.28606,-3.19451 0.13702,-4.49298c-1.27993,-1.27518 -3.35007,-1.27518 -4.63,0c-0.61741,0.61215 -0.96471,1.44556 -0.96471,2.315c0,0.86944 0.3473,1.70285 0.96471,2.315zm52.8,-52.54c0.68957,3.10984 3.69244,5.13605 6.83433,4.61151c3.14189,-0.52453 5.32371,-3.41632 4.96567,-6.58151c-0.68957,-3.10984 -3.69244,-5.13605 -6.83433,-4.61151c-3.14189,0.52453 -5.32371,3.41632 -4.96567,6.58151z" stroke-linecap=" butt" stroke=" none" stroke-dasharray=" none" stroke-dashoffset="0" stroke-linejoin=" miter" stroke-miterlimit="4" fill=" rgb(90,140,140)" fill-rule=" nonzero" id="svg_44"/>
  </g>
  <g transform="matrix(4.19 0 0 4.29 1604.05 30.96)" id="svg_45">
   <path vector-effect="non-scaling-stroke" d="m43.57,-36.75c0.42336,-0.01365 0.82255,0.1969 1.05036,0.554c0.2278,0.3571 0.25047,0.80785 0.05964,1.186c-1.37567,3.13242 -0.07493,6.79441 2.96847,8.35717c3.04341,1.56276 6.77742,0.48606 8.52153,-2.45717c0.30219,-0.58077 1.01411,-0.81214 1.6,-0.52c0.28,0.14 0.49,0.39 0.59,0.7c0.08,0.27 0.05,0.6 -0.1,0.88c-1.06505,2.07928 -2.91484,3.64837 -5.14,4.36c-2.22768,0.72537 -4.65276,0.53143 -6.73684,-0.53878c-2.08408,-1.0702 -3.6547,-2.9281 -4.36316,-5.16122c-0.7203,-2.22274 -0.52599,-4.6408 0.54,-6.72c0.1923,-0.37918 0.57514,-0.6242 1,-0.64l0.01,0zm-100,0c0.42336,-0.01365 0.82255,0.1969 1.05036,0.554c0.2278,0.3571 0.25047,0.80785 0.05964,1.186c-1.61135,3.1711 -0.36066,7.04825 2.8,8.68c3.16581,1.61433 7.0411,0.37317 8.68,-2.78c0.30219,-0.58077 1.01411,-0.81214 1.6,-0.52c0.3,0.14 0.5,0.39 0.6,0.7c0.08,0.27 0.05,0.6 -0.1,0.88c-1.06416,2.07998 -2.9143,3.64936 -5.14,4.36c-2.22773,0.72257 -4.65158,0.52732 -6.73493,-0.5425c-2.08335,-1.06983 -3.65431,-2.92598 -4.36507,-5.1575c-0.7203,-2.22274 -0.52599,-4.6408 0.54,-6.72c0.1923,-0.37918 0.57514,-0.6242 1,-0.64l0.01,0zm61.5,15.26c1.84,0.06 3.58,0.76 4.98,1.99c0.28311,0.25342 0.41223,0.63696 0.34,1.01c-0.09641,0.47592 -0.49601,0.83066 -0.98,0.87c-0.29,0.02 -0.56,-0.07 -0.78,-0.27c-2.43343,-1.91572 -5.93916,-1.5987 -7.98945,0.72248c-2.05029,2.32118 -1.93205,5.83923 0.26945,8.01752c0.21779,0.18212 0.35165,0.44536 0.37054,0.72863c0.01888,0.28327 -0.07886,0.56195 -0.27054,0.77137c-0.2,0.22 -0.45,0.35 -0.74,0.37c-0.28,0.02 -0.56,-0.08 -0.77,-0.27c-1.5892,-1.39556 -2.5542,-3.36877 -2.68,-5.48c-0.14503,-2.11306 0.56236,-4.19618 1.96413,-5.78398c1.40177,-1.5878 3.38113,-2.54797 5.49587,-2.66602c0.26,-0.02 0.53,-0.02 0.79,-0.01zm-7.18,23.34c3.62977,-0.17595 7.03703,1.75168 8.75583,4.95354c1.7188,3.20185 1.44257,7.10684 -0.70986,10.03485c-2.15242,2.92801 -5.79712,4.35679 -9.36597,3.67161c-4.75925,-0.81856 -8.12398,-5.11018 -7.78322,-9.92727c0.34076,-4.81709 4.27613,-8.5923 9.10322,-8.73273zm0.06,1.78c-4.20841,0.12979 -7.51479,3.64659 -7.385,7.855c0.12979,4.20841 3.64659,7.51479 7.855,7.385c4.20841,-0.12979 7.51479,-3.64659 7.385,-7.855c-0.12979,-4.20841 -3.64659,-7.51479 -7.855,-7.385zm-21.4,16.73l4.83,9.23l-13.73,7.17l-4.82,-9.22l13.72,-7.18z" stroke-linecap=" butt" stroke=" none" stroke-dasharray=" none" stroke-dashoffset="0" stroke-linejoin=" miter" stroke-miterlimit="4" fill=" rgb(242,144,58)" fill-rule=" nonzero" id="svg_46"/>
  </g>
 </g>
</svg>