<?xml version="1.0" encoding="UTF-8" standalone="no" ?>
<!DOCTYPE svg PUBLIC "-//W3C//DTD SVG 1.1//EN" "http://www.w3.org/Graphics/SVG/1.1/DTD/svg11.dtd">
<svg xmlns="http://www.w3.org/2000/svg" xmlns:xlink="http://www.w3.org/1999/xlink" version="1.1" width="2048" height="2048" viewBox="0 0 2048 2048" xml:space="preserve">
<desc>Created with Fabric.js 5.2.4</desc>
<defs>
</defs>
<rect x="0" y="0" width="100%" height="100%" fill="transparent"></rect>
<g transform="matrix(0 0 0 0 0 0)" id="eee7277f-06ca-44b5-b5d7-584a717c9905"  >
</g>
<g transform="matrix(1 0 0 1 1024 1024)" id="93a8c486-907c-432b-ae7c-80bac65b39bb"  >
<rect style="stroke: none; stroke-width: 1; stroke-dasharray: none; stroke-linecap: butt; stroke-dashoffset: 0; stroke-linejoin: miter; stroke-miterlimit: 4; fill: rgb(255,255,255); fill-rule: nonzero; opacity: 1; visibility: hidden;" vector-effect="non-scaling-stroke"  x="-1024" y="-1024" rx="0" ry="0" width="2048" height="2048" />
</g>
<g transform="matrix(1.9 0 0 1.9 1024 1024)"  >
<rect style="stroke: none; stroke-width: 1; stroke-dasharray: none; stroke-linecap: butt; stroke-dashoffset: 0; stroke-linejoin: miter; stroke-miterlimit: 4; fill: rgb(214,201,201); fill-rule: nonzero; opacity: 1;" vector-effect="non-scaling-stroke"  x="-540" y="-540" rx="0" ry="0" width="1080" height="1080" />
</g>
<g transform="matrix(4.19 0 0 4.29 275.37 1107.19)"  >
<path style="stroke: none; stroke-width: 1; stroke-dasharray: none; stroke-linecap: butt; stroke-dashoffset: 0; stroke-linejoin: miter; stroke-miterlimit: 4; fill: rgb(242,144,58); fill-rule: nonzero; opacity: 1;" vector-effect="non-scaling-stroke"  transform=" translate(-48.83, -48.57)" d="M 92.4 11.82 C 92.82335544029489 11.806346686278365 93.22254952850187 12.016896973788896 93.4503551041896 12.373997605948022 C 93.67816067987731 12.731098238107146 93.70082909906647 13.181845935163533 93.51 13.559999999999999 C 92.13432514596018 16.692420283515986 93.43506680329183 20.354409309871905 96.47847330545905 21.917168088182308 C 99.52187980762625 23.47992686649271 103.25588837535332 22.40323168938366 105 19.46 C 105.30219076155352 18.879230758748967 106.01411249820002 18.647856194338857 106.6 18.94 C 106.88 19.080000000000002 107.08999999999999 19.330000000000002 107.19 19.64 C 107.27 19.91 107.24 20.240000000000002 107.09 20.52 C 106.02495222015402 22.599280340324942 104.17515501761632 24.168369017963933 101.95 24.88 C 99.72231795874262 25.60537115474817 97.29723752917171 25.411425670044746 95.21315635953152 24.341221826175467 C 93.12907518989134 23.271017982306184 91.55845760347486 21.413118539880948 90.85000000000001 19.18 C 90.12969816923302 16.957259638763823 90.32400663088309 14.539198782674076 91.39000000000001 12.460000000000003 C 91.58229532493968 12.080823909487936 91.96514432768176 11.835800547733008 92.39000000000001 11.82 z M -7.599999999999994 11.82 C -7.176644559705108 11.806346686278365 -6.777450471498123 12.016896973788896 -6.549644895810405 12.373997605948022 C -6.321839320122688 12.731098238107146 -6.299170900933532 13.181845935163533 -6.489999999999993 13.559999999999999 C -8.10134989543603 16.731104118020315 -6.850656751312931 20.608252864801933 -3.689999999999999 22.240000000000002 C -0.5241863587914768 23.8543293649225 3.3511028553713125 22.61316530785193 4.990000000000004 19.46 C 5.292190761553526 18.879230758748967 6.004112498200026 18.647856194338853 6.590000000000005 18.94 C 6.890000000000005 19.080000000000002 7.090000000000005 19.330000000000002 7.190000000000005 19.64 C 7.270000000000005 19.91 7.240000000000005 20.240000000000002 7.090000000000005 20.52 C 6.025837235281945 22.59998182715536 4.175702754288562 24.16935660091628 1.9500000000000028 24.88 C -0.2777255303846142 25.602566763592332 -2.7015836753250335 25.407323220373804 -4.784930595789083 24.337496423378752 C -6.868277516253133 23.267669626383704 -8.439237881493128 21.411519880590664 -9.149999999999995 19.18 C -9.870301830766985 16.957259638763826 -9.675993369116917 14.539198782674076 -8.609999999999996 12.46 C -8.41770467506033 12.080823909487936 -8.034855672318258 11.835800547733008 -7.609999999999997 11.82 z M 53.900000000000006 27.08 C 55.74000000000001 27.139999999999997 57.480000000000004 27.84 58.88000000000001 29.069999999999997 C 59.163110651343445 29.323417582883113 59.29222540126444 29.706964340001363 59.22000000000001 30.08 C 59.12358828640977 30.55591582439015 58.72398733329397 30.91066360929908 58.240000000000016 30.95 C 57.95000000000002 30.97 57.680000000000014 30.88 57.460000000000015 30.68 C 55.026571816462955 28.764276070200154 51.5208404203044 29.08129590518708 49.47055146883909 31.4024779564574 C 47.42026251737377 33.723660007727716 47.53849523038963 37.241709925417894 49.740000000000016 39.42 C 49.95778708063703 39.602121169057 50.09165480504779 39.86535927361243 50.110539566511356 40.14863069556591 C 50.129424327974924 40.43190211751939 50.03168438491587 40.710580733239475 49.84000000000002 40.92 C 49.640000000000015 41.14 49.390000000000015 41.27 49.100000000000016 41.29 C 48.820000000000014 41.31 48.54000000000001 41.21 48.33000000000001 41.019999999999996 C 46.74080466335127 39.62444280799717 45.775803144012556 37.65123074606578 45.65000000000001 35.53999999999999 C 45.50497061034229 33.4269351867074 46.212357575522844 31.3438194336688 47.61413099165199 29.756019786712862 C 49.01590440778113 28.16822013975693 50.995256149273345 27.208046070894063 53.110000000000014 27.089999999999993 C 53.37000000000001 27.069999999999993 53.640000000000015 27.069999999999993 53.90000000000001 27.07999999999999 z M 46.720000000000006 50.42 C 50.3497660757139 50.24404886671985 53.75703391815597 52.17168129266959 55.475834385764486 55.37353786632413 C 57.194634853373 58.575394439978666 56.91839773572065 62.48038278497329 54.76597341644562 65.40839065987723 C 52.61354909717059 68.33639853478115 48.96885018796022 69.76517800723781 45.4 69.08 C 40.64075069748953 68.26143714231134 37.27602152547258 63.96982318620925 37.61678049694231 59.152730453159904 C 37.95753946841204 54.33563772011057 41.892911997630655 50.560429672134475 46.72 50.42 z M 46.78000000000001 52.2 C 42.571590206289365 52.32978691621024 39.265213083789774 55.846590206289356 39.39500000000001 60.055 C 39.524786916210246 64.26340979371065 43.041590206289364 67.56978691621023 47.25000000000001 67.44 C 51.45840979371066 67.31021308378976 54.76478691621024 63.793409793710644 54.635000000000005 59.585 C 54.50521308378977 55.37659020628935 50.98840979371066 52.07021308378976 46.78000000000001 52.199999999999996 z M 25.38000000000001 68.93 L 30.210000000000008 78.16000000000001 L 16.480000000000008 85.33000000000001 L 11.660000000000007 76.11000000000001 z" stroke-linecap="round" />
</g>
<g transform="matrix(0 5.48 -5.21 0 769 1150.61)"  >
<path style="stroke: none; stroke-width: 1; stroke-dasharray: none; stroke-linecap: butt; stroke-dashoffset: 0; stroke-linejoin: miter; stroke-miterlimit: 4; fill: rgb(90,140,140); fill-rule: nonzero; opacity: 1;" vector-effect="non-scaling-stroke"  transform=" translate(-46.73, -43.72)" d="M 53.04 81.06 C 53.22225396744416 82.15076238091582 54.25423761908418 82.88725396744417 55.345 82.705 C 56.43576238091582 82.52274603255584 57.17225396744416 81.49076238091583 56.99 80.4 C 56.80774603255584 79.30923761908419 55.77576238091582 78.57274603255584 54.685 78.75500000000001 C 53.59423761908418 78.93725396744416 52.85774603255584 79.96923761908418 53.04 81.06 z M 14.89 63.92 C 16.18846676371329 65.06904392080253 18.156943479423937 65.00901112465777 19.382977302040857 63.782977302040855 C 20.60901112465778 62.556943479423936 20.669043920802533 60.588466763713285 19.52 59.29 C 18.240072590583242 58.01481665227636 16.169927409416754 58.01481665227636 14.89 59.29 C 14.272594258378593 59.902150218276766 13.925294098803027 60.73556470078368 13.925294098803027 61.605000000000004 C 13.925294098803027 62.474435299216324 14.272594258378593 63.307849781723235 14.89 63.92 z M 67.69 11.380000000000003 C 68.37957033372416 14.489840351512814 71.38244252661582 16.516048857643415 74.52433308445043 15.991512891632043 C 77.66622364228505 15.46697692562067 79.84804049487482 12.57518897715122 79.49 9.41 C 78.80042966627583 6.30015964848719 75.79755747338417 4.273951142356589 72.65566691554956 4.798487108367961 C 69.51377635771495 5.323023074379334 67.33195950512517 8.214811022848785 67.69 11.380000000000003 z" stroke-linecap="round" />
</g>
<g transform="matrix(6.37 0 0 5.75 613.44 73.48)"  >
<path style="stroke: none; stroke-width: 1; stroke-dasharray: none; stroke-linecap: butt; stroke-dashoffset: 0; stroke-linejoin: miter; stroke-miterlimit: 4; fill: rgb(225,226,167); fill-rule: nonzero; opacity: 1;" vector-effect="non-scaling-stroke"  transform=" translate(-55.14, -58.95)" d="M 80.37 64.6 C 87.86726547895303 64.91480230740355 93.68980230740355 71.24773452104697 93.37500000000001 78.74499999999999 C 93.06019769259646 86.24226547895302 86.72726547895303 92.06480230740355 79.23000000000002 91.75 C 71.73549594479614 91.43519769259645 65.91519769259645 85.10450405520386 66.23 77.61 C 66.54480230740356 70.11549594479612 72.87549594479614 64.29519769259645 80.37 64.61 z M 26.83 26.14 L 25.159999999999997 30.91 L 23.479999999999997 35.69 L 20.179999999999996 31.849999999999998 L 16.9 28 L 21.869999999999997 27.07 z M 81.15 41.86 L 82.91000000000001 46.59 L 84.69000000000001 51.330000000000005 L 79.70000000000002 50.50000000000001 L 74.71000000000002 49.660000000000004 L 77.93000000000002 45.760000000000005 z" stroke-linecap="round" />
</g>
<g transform="matrix(0 6.37 -5.75 0 217.67 1698.1)"  >
<path style="stroke: none; stroke-width: 1; stroke-dasharray: none; stroke-linecap: butt; stroke-dashoffset: 0; stroke-linejoin: miter; stroke-miterlimit: 4; fill: rgb(225,226,167); fill-rule: nonzero; opacity: 1;" vector-effect="non-scaling-stroke"  transform=" translate(-55.14, -58.95)" d="M 80.37 64.6 C 87.86726547895303 64.91480230740355 93.68980230740355 71.24773452104697 93.37500000000001 78.74499999999999 C 93.06019769259646 86.24226547895302 86.72726547895303 92.06480230740355 79.23000000000002 91.75 C 71.73549594479614 91.43519769259645 65.91519769259645 85.10450405520386 66.23 77.61 C 66.54480230740356 70.11549594479612 72.87549594479614 64.29519769259645 80.37 64.61 z M 26.83 26.14 L 25.159999999999997 30.91 L 23.479999999999997 35.69 L 20.179999999999996 31.849999999999998 L 16.9 28 L 21.869999999999997 27.07 z M 81.15 41.86 L 82.91000000000001 46.59 L 84.69000000000001 51.330000000000005 L 79.70000000000002 50.50000000000001 L 74.71000000000002 49.660000000000004 L 77.93000000000002 45.760000000000005 z" stroke-linecap="round" />
</g>
<g transform="matrix(4.5 4.5 -4.07 4.07 1232.54 1627.36)"  >
<path style="stroke: none; stroke-width: 1; stroke-dasharray: none; stroke-linecap: butt; stroke-dashoffset: 0; stroke-linejoin: miter; stroke-miterlimit: 4; fill: rgb(225,226,167); fill-rule: nonzero; opacity: 1;" vector-effect="non-scaling-stroke"  transform=" translate(-55.14, -58.95)" d="M 80.37 64.6 C 87.86726547895303 64.91480230740355 93.68980230740355 71.24773452104697 93.37500000000001 78.74499999999999 C 93.06019769259646 86.24226547895302 86.72726547895303 92.06480230740355 79.23000000000002 91.75 C 71.73549594479614 91.43519769259645 65.91519769259645 85.10450405520386 66.23 77.61 C 66.54480230740356 70.11549594479612 72.87549594479614 64.29519769259645 80.37 64.61 z M 26.83 26.14 L 25.159999999999997 30.91 L 23.479999999999997 35.69 L 20.179999999999996 31.849999999999998 L 16.9 28 L 21.869999999999997 27.07 z M 81.15 41.86 L 82.91000000000001 46.59 L 84.69000000000001 51.330000000000005 L 79.70000000000002 50.50000000000001 L 74.71000000000002 49.660000000000004 L 77.93000000000002 45.760000000000005 z" stroke-linecap="round" />
</g>
<g transform="matrix(0 5.48 -5.21 0 222.39 225.84)"  >
<path style="stroke: none; stroke-width: 1; stroke-dasharray: none; stroke-linecap: butt; stroke-dashoffset: 0; stroke-linejoin: miter; stroke-miterlimit: 4; fill: rgb(90,140,140); fill-rule: nonzero; opacity: 1;" vector-effect="non-scaling-stroke"  transform=" translate(-46.73, -43.72)" d="M 53.04 81.06 C 53.22225396744416 82.15076238091582 54.25423761908418 82.88725396744417 55.345 82.705 C 56.43576238091582 82.52274603255584 57.17225396744416 81.49076238091583 56.99 80.4 C 56.80774603255584 79.30923761908419 55.77576238091582 78.57274603255584 54.685 78.75500000000001 C 53.59423761908418 78.93725396744416 52.85774603255584 79.96923761908418 53.04 81.06 z M 14.89 63.92 C 16.18846676371329 65.06904392080253 18.156943479423937 65.00901112465777 19.382977302040857 63.782977302040855 C 20.60901112465778 62.556943479423936 20.669043920802533 60.588466763713285 19.52 59.29 C 18.240072590583242 58.01481665227636 16.169927409416754 58.01481665227636 14.89 59.29 C 14.272594258378593 59.902150218276766 13.925294098803027 60.73556470078368 13.925294098803027 61.605000000000004 C 13.925294098803027 62.474435299216324 14.272594258378593 63.307849781723235 14.89 63.92 z M 67.69 11.380000000000003 C 68.37957033372416 14.489840351512814 71.38244252661582 16.516048857643415 74.52433308445043 15.991512891632043 C 77.66622364228505 15.46697692562067 79.84804049487482 12.57518897715122 79.49 9.41 C 78.80042966627583 6.30015964848719 75.79755747338417 4.273951142356589 72.65566691554956 4.798487108367961 C 69.51377635771495 5.323023074379334 67.33195950512517 8.214811022848785 67.69 11.380000000000003 z" stroke-linecap="round" />
</g>
<g transform="matrix(-4.19 0 0 -4.29 300.24 186.67)"  >
<path style="stroke: none; stroke-width: 1; stroke-dasharray: none; stroke-linecap: butt; stroke-dashoffset: 0; stroke-linejoin: miter; stroke-miterlimit: 4; fill: rgb(242,144,58); fill-rule: nonzero; opacity: 1;" vector-effect="non-scaling-stroke"  transform=" translate(-48.83, -48.57)" d="M 92.4 11.82 C 92.82335544029489 11.806346686278365 93.22254952850187 12.016896973788896 93.4503551041896 12.373997605948022 C 93.67816067987731 12.731098238107146 93.70082909906647 13.181845935163533 93.51 13.559999999999999 C 92.13432514596018 16.692420283515986 93.43506680329183 20.354409309871905 96.47847330545905 21.917168088182308 C 99.52187980762625 23.47992686649271 103.25588837535332 22.40323168938366 105 19.46 C 105.30219076155352 18.879230758748967 106.01411249820002 18.647856194338857 106.6 18.94 C 106.88 19.080000000000002 107.08999999999999 19.330000000000002 107.19 19.64 C 107.27 19.91 107.24 20.240000000000002 107.09 20.52 C 106.02495222015402 22.599280340324942 104.17515501761632 24.168369017963933 101.95 24.88 C 99.72231795874262 25.60537115474817 97.29723752917171 25.411425670044746 95.21315635953152 24.341221826175467 C 93.12907518989134 23.271017982306184 91.55845760347486 21.413118539880948 90.85000000000001 19.18 C 90.12969816923302 16.957259638763823 90.32400663088309 14.539198782674076 91.39000000000001 12.460000000000003 C 91.58229532493968 12.080823909487936 91.96514432768176 11.835800547733008 92.39000000000001 11.82 z M -7.599999999999994 11.82 C -7.176644559705108 11.806346686278365 -6.777450471498123 12.016896973788896 -6.549644895810405 12.373997605948022 C -6.321839320122688 12.731098238107146 -6.299170900933532 13.181845935163533 -6.489999999999993 13.559999999999999 C -8.10134989543603 16.731104118020315 -6.850656751312931 20.608252864801933 -3.689999999999999 22.240000000000002 C -0.5241863587914768 23.8543293649225 3.3511028553713125 22.61316530785193 4.990000000000004 19.46 C 5.292190761553526 18.879230758748967 6.004112498200026 18.647856194338853 6.590000000000005 18.94 C 6.890000000000005 19.080000000000002 7.090000000000005 19.330000000000002 7.190000000000005 19.64 C 7.270000000000005 19.91 7.240000000000005 20.240000000000002 7.090000000000005 20.52 C 6.025837235281945 22.59998182715536 4.175702754288562 24.16935660091628 1.9500000000000028 24.88 C -0.2777255303846142 25.602566763592332 -2.7015836753250335 25.407323220373804 -4.784930595789083 24.337496423378752 C -6.868277516253133 23.267669626383704 -8.439237881493128 21.411519880590664 -9.149999999999995 19.18 C -9.870301830766985 16.957259638763826 -9.675993369116917 14.539198782674076 -8.609999999999996 12.46 C -8.41770467506033 12.080823909487936 -8.034855672318258 11.835800547733008 -7.609999999999997 11.82 z M 53.900000000000006 27.08 C 55.74000000000001 27.139999999999997 57.480000000000004 27.84 58.88000000000001 29.069999999999997 C 59.163110651343445 29.323417582883113 59.29222540126444 29.706964340001363 59.22000000000001 30.08 C 59.12358828640977 30.55591582439015 58.72398733329397 30.91066360929908 58.240000000000016 30.95 C 57.95000000000002 30.97 57.680000000000014 30.88 57.460000000000015 30.68 C 55.026571816462955 28.764276070200154 51.5208404203044 29.08129590518708 49.47055146883909 31.4024779564574 C 47.42026251737377 33.723660007727716 47.53849523038963 37.241709925417894 49.740000000000016 39.42 C 49.95778708063703 39.602121169057 50.09165480504779 39.86535927361243 50.110539566511356 40.14863069556591 C 50.129424327974924 40.43190211751939 50.03168438491587 40.710580733239475 49.84000000000002 40.92 C 49.640000000000015 41.14 49.390000000000015 41.27 49.100000000000016 41.29 C 48.820000000000014 41.31 48.54000000000001 41.21 48.33000000000001 41.019999999999996 C 46.74080466335127 39.62444280799717 45.775803144012556 37.65123074606578 45.65000000000001 35.53999999999999 C 45.50497061034229 33.4269351867074 46.212357575522844 31.3438194336688 47.61413099165199 29.756019786712862 C 49.01590440778113 28.16822013975693 50.995256149273345 27.208046070894063 53.110000000000014 27.089999999999993 C 53.37000000000001 27.069999999999993 53.640000000000015 27.069999999999993 53.90000000000001 27.07999999999999 z M 46.720000000000006 50.42 C 50.3497660757139 50.24404886671985 53.75703391815597 52.17168129266959 55.475834385764486 55.37353786632413 C 57.194634853373 58.575394439978666 56.91839773572065 62.48038278497329 54.76597341644562 65.40839065987723 C 52.61354909717059 68.33639853478115 48.96885018796022 69.76517800723781 45.4 69.08 C 40.64075069748953 68.26143714231134 37.27602152547258 63.96982318620925 37.61678049694231 59.152730453159904 C 37.95753946841204 54.33563772011057 41.892911997630655 50.560429672134475 46.72 50.42 z M 46.78000000000001 52.2 C 42.571590206289365 52.32978691621024 39.265213083789774 55.846590206289356 39.39500000000001 60.055 C 39.524786916210246 64.26340979371065 43.041590206289364 67.56978691621023 47.25000000000001 67.44 C 51.45840979371066 67.31021308378976 54.76478691621024 63.793409793710644 54.635000000000005 59.585 C 54.50521308378977 55.37659020628935 50.98840979371066 52.07021308378976 46.78000000000001 52.199999999999996 z M 25.38000000000001 68.93 L 30.210000000000008 78.16000000000001 L 16.480000000000008 85.33000000000001 L 11.660000000000007 76.11000000000001 z" stroke-linecap="round" />
</g>
<g transform="matrix(0 5.48 -5.21 0 815.11 502.02)"  >
<path style="stroke: none; stroke-width: 1; stroke-dasharray: none; stroke-linecap: butt; stroke-dashoffset: 0; stroke-linejoin: miter; stroke-miterlimit: 4; fill: rgb(90,140,140); fill-rule: nonzero; opacity: 1;" vector-effect="non-scaling-stroke"  transform=" translate(-46.73, -43.72)" d="M 53.04 81.06 C 53.22225396744416 82.15076238091582 54.25423761908418 82.88725396744417 55.345 82.705 C 56.43576238091582 82.52274603255584 57.17225396744416 81.49076238091583 56.99 80.4 C 56.80774603255584 79.30923761908419 55.77576238091582 78.57274603255584 54.685 78.75500000000001 C 53.59423761908418 78.93725396744416 52.85774603255584 79.96923761908418 53.04 81.06 z M 14.89 63.92 C 16.18846676371329 65.06904392080253 18.156943479423937 65.00901112465777 19.382977302040857 63.782977302040855 C 20.60901112465778 62.556943479423936 20.669043920802533 60.588466763713285 19.52 59.29 C 18.240072590583242 58.01481665227636 16.169927409416754 58.01481665227636 14.89 59.29 C 14.272594258378593 59.902150218276766 13.925294098803027 60.73556470078368 13.925294098803027 61.605000000000004 C 13.925294098803027 62.474435299216324 14.272594258378593 63.307849781723235 14.89 63.92 z M 67.69 11.380000000000003 C 68.37957033372416 14.489840351512814 71.38244252661582 16.516048857643415 74.52433308445043 15.991512891632043 C 77.66622364228505 15.46697692562067 79.84804049487482 12.57518897715122 79.49 9.41 C 78.80042966627583 6.30015964848719 75.79755747338417 4.273951142356589 72.65566691554956 4.798487108367961 C 69.51377635771495 5.323023074379334 67.33195950512517 8.214811022848785 67.69 11.380000000000003 z" stroke-linecap="round" />
</g>
<g transform="matrix(4.19 0 0 4.29 871.73 1860.76)"  >
<path style="stroke: none; stroke-width: 1; stroke-dasharray: none; stroke-linecap: butt; stroke-dashoffset: 0; stroke-linejoin: miter; stroke-miterlimit: 4; fill: rgb(242,144,58); fill-rule: nonzero; opacity: 1;" vector-effect="non-scaling-stroke"  transform=" translate(-48.83, -48.57)" d="M 92.4 11.82 C 92.82335544029489 11.806346686278365 93.22254952850187 12.016896973788896 93.4503551041896 12.373997605948022 C 93.67816067987731 12.731098238107146 93.70082909906647 13.181845935163533 93.51 13.559999999999999 C 92.13432514596018 16.692420283515986 93.43506680329183 20.354409309871905 96.47847330545905 21.917168088182308 C 99.52187980762625 23.47992686649271 103.25588837535332 22.40323168938366 105 19.46 C 105.30219076155352 18.879230758748967 106.01411249820002 18.647856194338857 106.6 18.94 C 106.88 19.080000000000002 107.08999999999999 19.330000000000002 107.19 19.64 C 107.27 19.91 107.24 20.240000000000002 107.09 20.52 C 106.02495222015402 22.599280340324942 104.17515501761632 24.168369017963933 101.95 24.88 C 99.72231795874262 25.60537115474817 97.29723752917171 25.411425670044746 95.21315635953152 24.341221826175467 C 93.12907518989134 23.271017982306184 91.55845760347486 21.413118539880948 90.85000000000001 19.18 C 90.12969816923302 16.957259638763823 90.32400663088309 14.539198782674076 91.39000000000001 12.460000000000003 C 91.58229532493968 12.080823909487936 91.96514432768176 11.835800547733008 92.39000000000001 11.82 z M -7.599999999999994 11.82 C -7.176644559705108 11.806346686278365 -6.777450471498123 12.016896973788896 -6.549644895810405 12.373997605948022 C -6.321839320122688 12.731098238107146 -6.299170900933532 13.181845935163533 -6.489999999999993 13.559999999999999 C -8.10134989543603 16.731104118020315 -6.850656751312931 20.608252864801933 -3.689999999999999 22.240000000000002 C -0.5241863587914768 23.8543293649225 3.3511028553713125 22.61316530785193 4.990000000000004 19.46 C 5.292190761553526 18.879230758748967 6.004112498200026 18.647856194338853 6.590000000000005 18.94 C 6.890000000000005 19.080000000000002 7.090000000000005 19.330000000000002 7.190000000000005 19.64 C 7.270000000000005 19.91 7.240000000000005 20.240000000000002 7.090000000000005 20.52 C 6.025837235281945 22.59998182715536 4.175702754288562 24.16935660091628 1.9500000000000028 24.88 C -0.2777255303846142 25.602566763592332 -2.7015836753250335 25.407323220373804 -4.784930595789083 24.337496423378752 C -6.868277516253133 23.267669626383704 -8.439237881493128 21.411519880590664 -9.149999999999995 19.18 C -9.870301830766985 16.957259638763826 -9.675993369116917 14.539198782674076 -8.609999999999996 12.46 C -8.41770467506033 12.080823909487936 -8.034855672318258 11.835800547733008 -7.609999999999997 11.82 z M 53.900000000000006 27.08 C 55.74000000000001 27.139999999999997 57.480000000000004 27.84 58.88000000000001 29.069999999999997 C 59.163110651343445 29.323417582883113 59.29222540126444 29.706964340001363 59.22000000000001 30.08 C 59.12358828640977 30.55591582439015 58.72398733329397 30.91066360929908 58.240000000000016 30.95 C 57.95000000000002 30.97 57.680000000000014 30.88 57.460000000000015 30.68 C 55.026571816462955 28.764276070200154 51.5208404203044 29.08129590518708 49.47055146883909 31.4024779564574 C 47.42026251737377 33.723660007727716 47.53849523038963 37.241709925417894 49.740000000000016 39.42 C 49.95778708063703 39.602121169057 50.09165480504779 39.86535927361243 50.110539566511356 40.14863069556591 C 50.129424327974924 40.43190211751939 50.03168438491587 40.710580733239475 49.84000000000002 40.92 C 49.640000000000015 41.14 49.390000000000015 41.27 49.100000000000016 41.29 C 48.820000000000014 41.31 48.54000000000001 41.21 48.33000000000001 41.019999999999996 C 46.74080466335127 39.62444280799717 45.775803144012556 37.65123074606578 45.65000000000001 35.53999999999999 C 45.50497061034229 33.4269351867074 46.212357575522844 31.3438194336688 47.61413099165199 29.756019786712862 C 49.01590440778113 28.16822013975693 50.995256149273345 27.208046070894063 53.110000000000014 27.089999999999993 C 53.37000000000001 27.069999999999993 53.640000000000015 27.069999999999993 53.90000000000001 27.07999999999999 z M 46.720000000000006 50.42 C 50.3497660757139 50.24404886671985 53.75703391815597 52.17168129266959 55.475834385764486 55.37353786632413 C 57.194634853373 58.575394439978666 56.91839773572065 62.48038278497329 54.76597341644562 65.40839065987723 C 52.61354909717059 68.33639853478115 48.96885018796022 69.76517800723781 45.4 69.08 C 40.64075069748953 68.26143714231134 37.27602152547258 63.96982318620925 37.61678049694231 59.152730453159904 C 37.95753946841204 54.33563772011057 41.892911997630655 50.560429672134475 46.72 50.42 z M 46.78000000000001 52.2 C 42.571590206289365 52.32978691621024 39.265213083789774 55.846590206289356 39.39500000000001 60.055 C 39.524786916210246 64.26340979371065 43.041590206289364 67.56978691621023 47.25000000000001 67.44 C 51.45840979371066 67.31021308378976 54.76478691621024 63.793409793710644 54.635000000000005 59.585 C 54.50521308378977 55.37659020628935 50.98840979371066 52.07021308378976 46.78000000000001 52.199999999999996 z M 25.38000000000001 68.93 L 30.210000000000008 78.16000000000001 L 16.480000000000008 85.33000000000001 L 11.660000000000007 76.11000000000001 z" stroke-linecap="round" />
</g>
<g transform="matrix(-3.92 1.48 -1.51 -4.02 1188.27 906.86)"  >
<path style="stroke: none; stroke-width: 1; stroke-dasharray: none; stroke-linecap: butt; stroke-dashoffset: 0; stroke-linejoin: miter; stroke-miterlimit: 4; fill: rgb(242,144,58); fill-rule: nonzero; opacity: 1;" vector-effect="non-scaling-stroke"  transform=" translate(-48.83, -48.57)" d="M 92.4 11.82 C 92.82335544029489 11.806346686278365 93.22254952850187 12.016896973788896 93.4503551041896 12.373997605948022 C 93.67816067987731 12.731098238107146 93.70082909906647 13.181845935163533 93.51 13.559999999999999 C 92.13432514596018 16.692420283515986 93.43506680329183 20.354409309871905 96.47847330545905 21.917168088182308 C 99.52187980762625 23.47992686649271 103.25588837535332 22.40323168938366 105 19.46 C 105.30219076155352 18.879230758748967 106.01411249820002 18.647856194338857 106.6 18.94 C 106.88 19.080000000000002 107.08999999999999 19.330000000000002 107.19 19.64 C 107.27 19.91 107.24 20.240000000000002 107.09 20.52 C 106.02495222015402 22.599280340324942 104.17515501761632 24.168369017963933 101.95 24.88 C 99.72231795874262 25.60537115474817 97.29723752917171 25.411425670044746 95.21315635953152 24.341221826175467 C 93.12907518989134 23.271017982306184 91.55845760347486 21.413118539880948 90.85000000000001 19.18 C 90.12969816923302 16.957259638763823 90.32400663088309 14.539198782674076 91.39000000000001 12.460000000000003 C 91.58229532493968 12.080823909487936 91.96514432768176 11.835800547733008 92.39000000000001 11.82 z M -7.599999999999994 11.82 C -7.176644559705108 11.806346686278365 -6.777450471498123 12.016896973788896 -6.549644895810405 12.373997605948022 C -6.321839320122688 12.731098238107146 -6.299170900933532 13.181845935163533 -6.489999999999993 13.559999999999999 C -8.10134989543603 16.731104118020315 -6.850656751312931 20.608252864801933 -3.689999999999999 22.240000000000002 C -0.5241863587914768 23.8543293649225 3.3511028553713125 22.61316530785193 4.990000000000004 19.46 C 5.292190761553526 18.879230758748967 6.004112498200026 18.647856194338853 6.590000000000005 18.94 C 6.890000000000005 19.080000000000002 7.090000000000005 19.330000000000002 7.190000000000005 19.64 C 7.270000000000005 19.91 7.240000000000005 20.240000000000002 7.090000000000005 20.52 C 6.025837235281945 22.59998182715536 4.175702754288562 24.16935660091628 1.9500000000000028 24.88 C -0.2777255303846142 25.602566763592332 -2.7015836753250335 25.407323220373804 -4.784930595789083 24.337496423378752 C -6.868277516253133 23.267669626383704 -8.439237881493128 21.411519880590664 -9.149999999999995 19.18 C -9.870301830766985 16.957259638763826 -9.675993369116917 14.539198782674076 -8.609999999999996 12.46 C -8.41770467506033 12.080823909487936 -8.034855672318258 11.835800547733008 -7.609999999999997 11.82 z M 53.900000000000006 27.08 C 55.74000000000001 27.139999999999997 57.480000000000004 27.84 58.88000000000001 29.069999999999997 C 59.163110651343445 29.323417582883113 59.29222540126444 29.706964340001363 59.22000000000001 30.08 C 59.12358828640977 30.55591582439015 58.72398733329397 30.91066360929908 58.240000000000016 30.95 C 57.95000000000002 30.97 57.680000000000014 30.88 57.460000000000015 30.68 C 55.026571816462955 28.764276070200154 51.5208404203044 29.08129590518708 49.47055146883909 31.4024779564574 C 47.42026251737377 33.723660007727716 47.53849523038963 37.241709925417894 49.740000000000016 39.42 C 49.95778708063703 39.602121169057 50.09165480504779 39.86535927361243 50.110539566511356 40.14863069556591 C 50.129424327974924 40.43190211751939 50.03168438491587 40.710580733239475 49.84000000000002 40.92 C 49.640000000000015 41.14 49.390000000000015 41.27 49.100000000000016 41.29 C 48.820000000000014 41.31 48.54000000000001 41.21 48.33000000000001 41.019999999999996 C 46.74080466335127 39.62444280799717 45.775803144012556 37.65123074606578 45.65000000000001 35.53999999999999 C 45.50497061034229 33.4269351867074 46.212357575522844 31.3438194336688 47.61413099165199 29.756019786712862 C 49.01590440778113 28.16822013975693 50.995256149273345 27.208046070894063 53.110000000000014 27.089999999999993 C 53.37000000000001 27.069999999999993 53.640000000000015 27.069999999999993 53.90000000000001 27.07999999999999 z M 46.720000000000006 50.42 C 50.3497660757139 50.24404886671985 53.75703391815597 52.17168129266959 55.475834385764486 55.37353786632413 C 57.194634853373 58.575394439978666 56.91839773572065 62.48038278497329 54.76597341644562 65.40839065987723 C 52.61354909717059 68.33639853478115 48.96885018796022 69.76517800723781 45.4 69.08 C 40.64075069748953 68.26143714231134 37.27602152547258 63.96982318620925 37.61678049694231 59.152730453159904 C 37.95753946841204 54.33563772011057 41.892911997630655 50.560429672134475 46.72 50.42 z M 46.78000000000001 52.2 C 42.571590206289365 52.32978691621024 39.265213083789774 55.846590206289356 39.39500000000001 60.055 C 39.524786916210246 64.26340979371065 43.041590206289364 67.56978691621023 47.25000000000001 67.44 C 51.45840979371066 67.31021308378976 54.76478691621024 63.793409793710644 54.635000000000005 59.585 C 54.50521308378977 55.37659020628935 50.98840979371066 52.07021308378976 46.78000000000001 52.199999999999996 z M 25.38000000000001 68.93 L 30.210000000000008 78.16000000000001 L 16.480000000000008 85.33000000000001 L 11.660000000000007 76.11000000000001 z" stroke-linecap="round" />
</g>
<g transform="matrix(2.91 0 0 2.64 281.83 648.46)"  >
<path style="stroke: none; stroke-width: 1; stroke-dasharray: none; stroke-linecap: butt; stroke-dashoffset: 0; stroke-linejoin: miter; stroke-miterlimit: 4; fill: rgb(223,52,98); fill-rule: nonzero; opacity: 1;" vector-effect="non-scaling-stroke"  transform=" translate(-64.17, -51.69)" d="M 107.9 52.52 C 109.5 52.52 110.9 51.540000000000006 111.68 49.910000000000004 C 112.22000000000001 48.78 113.15 48.11000000000001 114.18 48.11000000000001 C 115.22000000000001 48.11000000000001 116.16000000000001 48.78000000000001 116.69000000000001 49.910000000000004 C 117.47000000000001 51.550000000000004 118.89000000000001 52.510000000000005 120.49000000000001 52.510000000000005 C 122.08000000000001 52.510000000000005 123.49000000000001 51.540000000000006 124.27000000000001 49.910000000000004 C 124.80000000000001 48.78 125.74000000000001 48.11000000000001 126.77000000000001 48.11000000000001 C 127.63000000000001 48.11000000000001 128.42000000000002 48.57000000000001 128.97 49.38000000000001 C 129.17 49.67000000000001 129.55 49.78000000000001 129.85999999999999 49.63000000000001 L 129.88 49.63000000000001 C 130.06475222387778 49.54428295732962 130.20301095221797 49.382351048819125 130.25870923515185 49.186446743327494 C 130.31440751808574 48.99054243783587 130.28202165340196 48.78009392934796 130.17 48.61000000000001 C 129.43636814434626 47.43402702813003 128.15588958045237 46.71093325087231 126.76999999999998 46.690000000000005 C 125.16999999999999 46.690000000000005 123.76999999999998 47.67 122.98999999999998 49.300000000000004 C 122.44999999999997 50.42 121.50999999999998 51.1 120.48999999999998 51.1 C 119.44999999999997 51.1 118.50999999999998 50.42 117.97999999999998 49.300000000000004 C 117.19999999999997 47.660000000000004 115.77999999999997 46.7 114.17999999999998 46.7 C 112.58999999999997 46.7 111.17999999999998 47.67 110.39999999999998 49.300000000000004 C 109.86999999999998 50.42 108.92999999999998 51.1 107.89999999999998 51.1 C 106.85999999999997 51.1 105.92999999999998 50.42 105.39999999999998 49.300000000000004 C 104.61999999999998 47.660000000000004 103.19999999999997 46.7 101.59999999999998 46.7 C 100.01999999999998 46.7 98.59999999999998 47.650000000000006 97.82999999999998 49.28 C 97.6667815980513 49.6117873755205 97.77352214741073 50.01313184111193 98.07999999999998 50.22 C 98.44999999999999 50.449999999999996 98.92999999999998 50.3 99.10999999999999 49.92 C 99.63999999999999 48.800000000000004 100.57999999999998 48.120000000000005 101.60999999999999 48.120000000000005 C 102.64999999999999 48.120000000000005 103.57999999999998 48.800000000000004 104.10999999999999 49.92 C 104.87999999999998 51.550000000000004 106.30999999999999 52.52 107.89999999999999 52.52 z M 107.86 47.61 C 109.46 47.61 110.87 46.63 111.65 45 C 112.18 43.87 113.12 43.2 114.15 43.2 C 115.19000000000001 43.2 116.12 43.870000000000005 116.65 45 C 117.43 46.64 118.85000000000001 47.6 120.45 47.6 C 122.05 47.6 123.45 46.63 124.23 45 C 124.77000000000001 43.87 125.7 43.2 126.73 43.2 C 127.77000000000001 43.2 128.71 43.870000000000005 129.24 45 C 129.41120827244757 45.35898508739002 129.84101491261 45.511208272447554 130.20000000000002 45.34 C 130.55898508739003 45.16879172755246 130.71120827244758 44.73898508739002 130.54000000000002 44.38 C 129.76000000000002 42.74 128.34000000000003 41.78 126.74000000000002 41.78 C 125.15000000000002 41.78 123.74000000000002 42.75 122.96000000000002 44.38 C 122.42000000000002 45.510000000000005 121.49000000000002 46.18 120.46000000000002 46.18 C 119.42000000000002 46.18 118.48000000000002 45.51 117.95000000000002 44.38 C 117.17000000000002 42.74 115.75000000000001 41.78 114.16000000000001 41.78 C 112.56000000000002 41.78 111.15 42.75 110.37 44.38 C 109.84 45.510000000000005 108.9 46.18 107.87 46.18 C 106.84 46.18 105.9 45.51 105.37 44.38 C 104.59 42.74 103.17 41.78 101.57000000000001 41.78 C 99.98 41.78 98.57000000000001 42.75 97.79 44.38 C 97.61879172755246 44.73898508739002 97.77101491260999 45.16879172755245 98.13000000000001 45.34 C 98.48898508739002 45.51120827244755 98.91879172755246 45.35898508739002 99.09 45 C 99.62 43.87 100.55 43.2 101.59 43.2 C 102.62 43.2 103.56 43.870000000000005 104.09 45 C 104.85000000000001 46.63 106.27000000000001 47.6 107.86 47.6 z M 42.86 -19.269999999999996 L 25.77 -6.92 L 8.72 5.44 L 27.950000000000003 14.04 L 47.19 22.65 L 45.02 1.7 z M 42.86 80.73 L 25.77 93.08 L 8.72 105.44 L 27.950000000000003 114.03999999999999 L 47.19 122.64999999999999 L 45.019999999999996 101.69 z M 7.9 52.52 C 9.5 52.52 10.9 51.540000000000006 11.68 49.910000000000004 C 12.219999999999999 48.78 13.15 48.11000000000001 14.18 48.11000000000001 C 15.219999999999999 48.11000000000001 16.16 48.78000000000001 16.689999999999998 49.910000000000004 C 17.47 51.550000000000004 18.889999999999997 52.510000000000005 20.49 52.510000000000005 C 22.08 52.510000000000005 23.49 51.540000000000006 24.27 49.910000000000004 C 24.8 48.78 25.74 48.11000000000001 26.77 48.11000000000001 C 27.63 48.11000000000001 28.419999999999998 48.57000000000001 28.97 49.38000000000001 C 29.169999999999998 49.67000000000001 29.54 49.78000000000001 29.86 49.63000000000001 L 29.88 49.63000000000001 C 30.064752223877775 49.54428295732963 30.20301095221797 49.382351048819125 30.258709235151862 49.1864467433275 C 30.314407518085755 48.99054243783587 30.282021653401973 48.78009392934797 30.169999999999998 48.61000000000001 C 29.436368144346282 47.43402702813004 28.155889580452396 46.71093325087231 26.77 46.690000000000005 C 25.169999999999998 46.690000000000005 23.759999999999998 47.67 22.99 49.300000000000004 C 22.45 50.42 21.509999999999998 51.1 20.49 51.1 C 19.45 51.1 18.509999999999998 50.42 17.979999999999997 49.300000000000004 C 17.199999999999996 47.660000000000004 15.779999999999998 46.7 14.179999999999996 46.7 C 12.589999999999996 46.7 11.179999999999996 47.67 10.399999999999997 49.300000000000004 C 9.869999999999997 50.42 8.929999999999996 51.1 7.899999999999997 51.1 C 6.859999999999997 51.1 5.929999999999997 50.42 5.399999999999997 49.300000000000004 C 4.6199999999999966 47.660000000000004 3.1999999999999966 46.7 1.599999999999997 46.7 C 0.01999999999999691 46.7 -1.400000000000003 47.650000000000006 -2.170000000000003 49.28 C -2.3332184019486837 49.6117873755205 -2.2264778525892606 50.01313184111193 -1.920000000000003 50.22 C -1.550000000000003 50.449999999999996 -1.070000000000003 50.3 -0.890000000000003 49.92 C -0.360000000000003 48.800000000000004 0.579999999999997 48.120000000000005 1.609999999999997 48.120000000000005 C 2.649999999999997 48.120000000000005 3.579999999999997 48.800000000000004 4.109999999999997 49.92 C 4.879999999999997 51.550000000000004 6.299999999999997 52.52 7.899999999999997 52.52 z M 7.86 47.61 C 9.46 47.61 10.870000000000001 46.63 11.65 45 C 12.18 43.87 13.120000000000001 43.2 14.15 43.2 C 15.190000000000001 43.2 16.12 43.870000000000005 16.65 45 C 17.43 46.64 18.849999999999998 47.6 20.45 47.6 C 22.04 47.6 23.45 46.63 24.23 45 C 24.77 43.87 25.7 43.2 26.73 43.2 C 27.77 43.2 28.71 43.870000000000005 29.240000000000002 45 C 29.411208272447546 45.35898508739002 29.841014912609985 45.51120827244755 30.200000000000003 45.34 C 30.558985087390017 45.16879172755246 30.711208272447546 44.73898508739002 30.540000000000003 44.38 C 29.76 42.74 28.340000000000003 41.78 26.740000000000002 41.78 C 25.150000000000002 41.78 23.740000000000002 42.75 22.96 44.38 C 22.42 45.510000000000005 21.490000000000002 46.18 20.46 46.18 C 19.42 46.18 18.48 45.51 17.950000000000003 44.38 C 17.17 42.74 15.750000000000004 41.78 14.160000000000004 41.78 C 12.560000000000004 41.78 11.150000000000004 42.75 10.370000000000005 44.38 C 9.840000000000005 45.510000000000005 8.900000000000004 46.18 7.8700000000000045 46.18 C 6.840000000000005 46.18 5.900000000000005 45.51 5.3700000000000045 44.38 C 4.590000000000004 42.74 3.1700000000000044 41.78 1.5700000000000047 41.78 C -0.019999999999995355 41.78 -1.4299999999999953 42.75 -2.209999999999995 44.38 C -2.3812082724475405 44.73898508739002 -2.2289850873900097 45.16879172755245 -1.869999999999994 45.34 C -1.5110149126099781 45.51120827244755 -1.0812082724475403 45.35898508739002 -0.909999999999995 45 C -0.379999999999995 43.87 0.5500000000000049 43.2 1.590000000000005 43.2 C 2.620000000000005 43.2 3.560000000000005 43.870000000000005 4.090000000000005 45 C 4.850000000000005 46.63 6.260000000000005 47.6 7.860000000000005 47.6 z" stroke-linecap="round" />
</g>
<g transform="matrix(-2.51 -1.87 1.69 -2.27 888.85 1302.07)"  >
<path style="stroke: none; stroke-width: 1; stroke-dasharray: none; stroke-linecap: butt; stroke-dashoffset: 0; stroke-linejoin: miter; stroke-miterlimit: 4; fill: rgb(223,52,98); fill-rule: nonzero; opacity: 1;" vector-effect="non-scaling-stroke"  transform=" translate(-64.17, -51.69)" d="M 107.9 52.52 C 109.5 52.52 110.9 51.540000000000006 111.68 49.910000000000004 C 112.22000000000001 48.78 113.15 48.11000000000001 114.18 48.11000000000001 C 115.22000000000001 48.11000000000001 116.16000000000001 48.78000000000001 116.69000000000001 49.910000000000004 C 117.47000000000001 51.550000000000004 118.89000000000001 52.510000000000005 120.49000000000001 52.510000000000005 C 122.08000000000001 52.510000000000005 123.49000000000001 51.540000000000006 124.27000000000001 49.910000000000004 C 124.80000000000001 48.78 125.74000000000001 48.11000000000001 126.77000000000001 48.11000000000001 C 127.63000000000001 48.11000000000001 128.42000000000002 48.57000000000001 128.97 49.38000000000001 C 129.17 49.67000000000001 129.55 49.78000000000001 129.85999999999999 49.63000000000001 L 129.88 49.63000000000001 C 130.06475222387778 49.54428295732962 130.20301095221797 49.382351048819125 130.25870923515185 49.186446743327494 C 130.31440751808574 48.99054243783587 130.28202165340196 48.78009392934796 130.17 48.61000000000001 C 129.43636814434626 47.43402702813003 128.15588958045237 46.71093325087231 126.76999999999998 46.690000000000005 C 125.16999999999999 46.690000000000005 123.76999999999998 47.67 122.98999999999998 49.300000000000004 C 122.44999999999997 50.42 121.50999999999998 51.1 120.48999999999998 51.1 C 119.44999999999997 51.1 118.50999999999998 50.42 117.97999999999998 49.300000000000004 C 117.19999999999997 47.660000000000004 115.77999999999997 46.7 114.17999999999998 46.7 C 112.58999999999997 46.7 111.17999999999998 47.67 110.39999999999998 49.300000000000004 C 109.86999999999998 50.42 108.92999999999998 51.1 107.89999999999998 51.1 C 106.85999999999997 51.1 105.92999999999998 50.42 105.39999999999998 49.300000000000004 C 104.61999999999998 47.660000000000004 103.19999999999997 46.7 101.59999999999998 46.7 C 100.01999999999998 46.7 98.59999999999998 47.650000000000006 97.82999999999998 49.28 C 97.6667815980513 49.6117873755205 97.77352214741073 50.01313184111193 98.07999999999998 50.22 C 98.44999999999999 50.449999999999996 98.92999999999998 50.3 99.10999999999999 49.92 C 99.63999999999999 48.800000000000004 100.57999999999998 48.120000000000005 101.60999999999999 48.120000000000005 C 102.64999999999999 48.120000000000005 103.57999999999998 48.800000000000004 104.10999999999999 49.92 C 104.87999999999998 51.550000000000004 106.30999999999999 52.52 107.89999999999999 52.52 z M 107.86 47.61 C 109.46 47.61 110.87 46.63 111.65 45 C 112.18 43.87 113.12 43.2 114.15 43.2 C 115.19000000000001 43.2 116.12 43.870000000000005 116.65 45 C 117.43 46.64 118.85000000000001 47.6 120.45 47.6 C 122.05 47.6 123.45 46.63 124.23 45 C 124.77000000000001 43.87 125.7 43.2 126.73 43.2 C 127.77000000000001 43.2 128.71 43.870000000000005 129.24 45 C 129.41120827244757 45.35898508739002 129.84101491261 45.511208272447554 130.20000000000002 45.34 C 130.55898508739003 45.16879172755246 130.71120827244758 44.73898508739002 130.54000000000002 44.38 C 129.76000000000002 42.74 128.34000000000003 41.78 126.74000000000002 41.78 C 125.15000000000002 41.78 123.74000000000002 42.75 122.96000000000002 44.38 C 122.42000000000002 45.510000000000005 121.49000000000002 46.18 120.46000000000002 46.18 C 119.42000000000002 46.18 118.48000000000002 45.51 117.95000000000002 44.38 C 117.17000000000002 42.74 115.75000000000001 41.78 114.16000000000001 41.78 C 112.56000000000002 41.78 111.15 42.75 110.37 44.38 C 109.84 45.510000000000005 108.9 46.18 107.87 46.18 C 106.84 46.18 105.9 45.51 105.37 44.38 C 104.59 42.74 103.17 41.78 101.57000000000001 41.78 C 99.98 41.78 98.57000000000001 42.75 97.79 44.38 C 97.61879172755246 44.73898508739002 97.77101491260999 45.16879172755245 98.13000000000001 45.34 C 98.48898508739002 45.51120827244755 98.91879172755246 45.35898508739002 99.09 45 C 99.62 43.87 100.55 43.2 101.59 43.2 C 102.62 43.2 103.56 43.870000000000005 104.09 45 C 104.85000000000001 46.63 106.27000000000001 47.6 107.86 47.6 z M 42.86 -19.269999999999996 L 25.77 -6.92 L 8.72 5.44 L 27.950000000000003 14.04 L 47.19 22.65 L 45.02 1.7 z M 42.86 80.73 L 25.77 93.08 L 8.72 105.44 L 27.950000000000003 114.03999999999999 L 47.19 122.64999999999999 L 45.019999999999996 101.69 z M 7.9 52.52 C 9.5 52.52 10.9 51.540000000000006 11.68 49.910000000000004 C 12.219999999999999 48.78 13.15 48.11000000000001 14.18 48.11000000000001 C 15.219999999999999 48.11000000000001 16.16 48.78000000000001 16.689999999999998 49.910000000000004 C 17.47 51.550000000000004 18.889999999999997 52.510000000000005 20.49 52.510000000000005 C 22.08 52.510000000000005 23.49 51.540000000000006 24.27 49.910000000000004 C 24.8 48.78 25.74 48.11000000000001 26.77 48.11000000000001 C 27.63 48.11000000000001 28.419999999999998 48.57000000000001 28.97 49.38000000000001 C 29.169999999999998 49.67000000000001 29.54 49.78000000000001 29.86 49.63000000000001 L 29.88 49.63000000000001 C 30.064752223877775 49.54428295732963 30.20301095221797 49.382351048819125 30.258709235151862 49.1864467433275 C 30.314407518085755 48.99054243783587 30.282021653401973 48.78009392934797 30.169999999999998 48.61000000000001 C 29.436368144346282 47.43402702813004 28.155889580452396 46.71093325087231 26.77 46.690000000000005 C 25.169999999999998 46.690000000000005 23.759999999999998 47.67 22.99 49.300000000000004 C 22.45 50.42 21.509999999999998 51.1 20.49 51.1 C 19.45 51.1 18.509999999999998 50.42 17.979999999999997 49.300000000000004 C 17.199999999999996 47.660000000000004 15.779999999999998 46.7 14.179999999999996 46.7 C 12.589999999999996 46.7 11.179999999999996 47.67 10.399999999999997 49.300000000000004 C 9.869999999999997 50.42 8.929999999999996 51.1 7.899999999999997 51.1 C 6.859999999999997 51.1 5.929999999999997 50.42 5.399999999999997 49.300000000000004 C 4.6199999999999966 47.660000000000004 3.1999999999999966 46.7 1.599999999999997 46.7 C 0.01999999999999691 46.7 -1.400000000000003 47.650000000000006 -2.170000000000003 49.28 C -2.3332184019486837 49.6117873755205 -2.2264778525892606 50.01313184111193 -1.920000000000003 50.22 C -1.550000000000003 50.449999999999996 -1.070000000000003 50.3 -0.890000000000003 49.92 C -0.360000000000003 48.800000000000004 0.579999999999997 48.120000000000005 1.609999999999997 48.120000000000005 C 2.649999999999997 48.120000000000005 3.579999999999997 48.800000000000004 4.109999999999997 49.92 C 4.879999999999997 51.550000000000004 6.299999999999997 52.52 7.899999999999997 52.52 z M 7.86 47.61 C 9.46 47.61 10.870000000000001 46.63 11.65 45 C 12.18 43.87 13.120000000000001 43.2 14.15 43.2 C 15.190000000000001 43.2 16.12 43.870000000000005 16.65 45 C 17.43 46.64 18.849999999999998 47.6 20.45 47.6 C 22.04 47.6 23.45 46.63 24.23 45 C 24.77 43.87 25.7 43.2 26.73 43.2 C 27.77 43.2 28.71 43.870000000000005 29.240000000000002 45 C 29.411208272447546 45.35898508739002 29.841014912609985 45.51120827244755 30.200000000000003 45.34 C 30.558985087390017 45.16879172755246 30.711208272447546 44.73898508739002 30.540000000000003 44.38 C 29.76 42.74 28.340000000000003 41.78 26.740000000000002 41.78 C 25.150000000000002 41.78 23.740000000000002 42.75 22.96 44.38 C 22.42 45.510000000000005 21.490000000000002 46.18 20.46 46.18 C 19.42 46.18 18.48 45.51 17.950000000000003 44.38 C 17.17 42.74 15.750000000000004 41.78 14.160000000000004 41.78 C 12.560000000000004 41.78 11.150000000000004 42.75 10.370000000000005 44.38 C 9.840000000000005 45.510000000000005 8.900000000000004 46.18 7.8700000000000045 46.18 C 6.840000000000005 46.18 5.900000000000005 45.51 5.3700000000000045 44.38 C 4.590000000000004 42.74 3.1700000000000044 41.78 1.5700000000000047 41.78 C -0.019999999999995355 41.78 -1.4299999999999953 42.75 -2.209999999999995 44.38 C -2.3812082724475405 44.73898508739002 -2.2289850873900097 45.16879172755245 -1.869999999999994 45.34 C -1.5110149126099781 45.51120827244755 -1.0812082724475403 45.35898508739002 -0.909999999999995 45 C -0.379999999999995 43.87 0.5500000000000049 43.2 1.590000000000005 43.2 C 2.620000000000005 43.2 3.560000000000005 43.870000000000005 4.090000000000005 45 C 4.850000000000005 46.63 6.260000000000005 47.6 7.860000000000005 47.6 z" stroke-linecap="round" />
</g>
<g transform="matrix(6.37 0 0 5.75 1729.68 1465.91)"  >
<path style="stroke: none; stroke-width: 1; stroke-dasharray: none; stroke-linecap: butt; stroke-dashoffset: 0; stroke-linejoin: miter; stroke-miterlimit: 4; fill: rgb(225,226,167); fill-rule: nonzero; opacity: 1;" vector-effect="non-scaling-stroke"  transform=" translate(-55.14, -58.95)" d="M 80.37 64.6 C 87.86726547895303 64.91480230740355 93.68980230740355 71.24773452104697 93.37500000000001 78.74499999999999 C 93.06019769259646 86.24226547895302 86.72726547895303 92.06480230740355 79.23000000000002 91.75 C 71.73549594479614 91.43519769259645 65.91519769259645 85.10450405520386 66.23 77.61 C 66.54480230740356 70.11549594479612 72.87549594479614 64.29519769259645 80.37 64.61 z M 26.83 26.14 L 25.159999999999997 30.91 L 23.479999999999997 35.69 L 20.179999999999996 31.849999999999998 L 16.9 28 L 21.869999999999997 27.07 z M 81.15 41.86 L 82.91000000000001 46.59 L 84.69000000000001 51.330000000000005 L 79.70000000000002 50.50000000000001 L 74.71000000000002 49.660000000000004 L 77.93000000000002 45.760000000000005 z" stroke-linecap="round" />
</g>
<g transform="matrix(0 5.48 -5.21 0 374.73 1519.02)"  >
<path style="stroke: none; stroke-width: 1; stroke-dasharray: none; stroke-linecap: butt; stroke-dashoffset: 0; stroke-linejoin: miter; stroke-miterlimit: 4; fill: rgb(90,140,140); fill-rule: nonzero; opacity: 1;" vector-effect="non-scaling-stroke"  transform=" translate(-46.73, -43.72)" d="M 53.04 81.06 C 53.22225396744416 82.15076238091582 54.25423761908418 82.88725396744417 55.345 82.705 C 56.43576238091582 82.52274603255584 57.17225396744416 81.49076238091583 56.99 80.4 C 56.80774603255584 79.30923761908419 55.77576238091582 78.57274603255584 54.685 78.75500000000001 C 53.59423761908418 78.93725396744416 52.85774603255584 79.96923761908418 53.04 81.06 z M 14.89 63.92 C 16.18846676371329 65.06904392080253 18.156943479423937 65.00901112465777 19.382977302040857 63.782977302040855 C 20.60901112465778 62.556943479423936 20.669043920802533 60.588466763713285 19.52 59.29 C 18.240072590583242 58.01481665227636 16.169927409416754 58.01481665227636 14.89 59.29 C 14.272594258378593 59.902150218276766 13.925294098803027 60.73556470078368 13.925294098803027 61.605000000000004 C 13.925294098803027 62.474435299216324 14.272594258378593 63.307849781723235 14.89 63.92 z M 67.69 11.380000000000003 C 68.37957033372416 14.489840351512814 71.38244252661582 16.516048857643415 74.52433308445043 15.991512891632043 C 77.66622364228505 15.46697692562067 79.84804049487482 12.57518897715122 79.49 9.41 C 78.80042966627583 6.30015964848719 75.79755747338417 4.273951142356589 72.65566691554956 4.798487108367961 C 69.51377635771495 5.323023074379334 67.33195950512517 8.214811022848785 67.69 11.380000000000003 z" stroke-linecap="round" />
</g>
<g transform="matrix(-2.6 0 0 -2.87 1707.3 1067.25)"  >
<path style="stroke: none; stroke-width: 1; stroke-dasharray: none; stroke-linecap: butt; stroke-dashoffset: 0; stroke-linejoin: miter; stroke-miterlimit: 4; fill: rgb(223,52,98); fill-rule: nonzero; opacity: 1;" vector-effect="non-scaling-stroke"  transform=" translate(-64.17, -51.69)" d="M 107.9 52.52 C 109.5 52.52 110.9 51.540000000000006 111.68 49.910000000000004 C 112.22000000000001 48.78 113.15 48.11000000000001 114.18 48.11000000000001 C 115.22000000000001 48.11000000000001 116.16000000000001 48.78000000000001 116.69000000000001 49.910000000000004 C 117.47000000000001 51.550000000000004 118.89000000000001 52.510000000000005 120.49000000000001 52.510000000000005 C 122.08000000000001 52.510000000000005 123.49000000000001 51.540000000000006 124.27000000000001 49.910000000000004 C 124.80000000000001 48.78 125.74000000000001 48.11000000000001 126.77000000000001 48.11000000000001 C 127.63000000000001 48.11000000000001 128.42000000000002 48.57000000000001 128.97 49.38000000000001 C 129.17 49.67000000000001 129.55 49.78000000000001 129.85999999999999 49.63000000000001 L 129.88 49.63000000000001 C 130.06475222387778 49.54428295732962 130.20301095221797 49.382351048819125 130.25870923515185 49.186446743327494 C 130.31440751808574 48.99054243783587 130.28202165340196 48.78009392934796 130.17 48.61000000000001 C 129.43636814434626 47.43402702813003 128.15588958045237 46.71093325087231 126.76999999999998 46.690000000000005 C 125.16999999999999 46.690000000000005 123.76999999999998 47.67 122.98999999999998 49.300000000000004 C 122.44999999999997 50.42 121.50999999999998 51.1 120.48999999999998 51.1 C 119.44999999999997 51.1 118.50999999999998 50.42 117.97999999999998 49.300000000000004 C 117.19999999999997 47.660000000000004 115.77999999999997 46.7 114.17999999999998 46.7 C 112.58999999999997 46.7 111.17999999999998 47.67 110.39999999999998 49.300000000000004 C 109.86999999999998 50.42 108.92999999999998 51.1 107.89999999999998 51.1 C 106.85999999999997 51.1 105.92999999999998 50.42 105.39999999999998 49.300000000000004 C 104.61999999999998 47.660000000000004 103.19999999999997 46.7 101.59999999999998 46.7 C 100.01999999999998 46.7 98.59999999999998 47.650000000000006 97.82999999999998 49.28 C 97.6667815980513 49.6117873755205 97.77352214741073 50.01313184111193 98.07999999999998 50.22 C 98.44999999999999 50.449999999999996 98.92999999999998 50.3 99.10999999999999 49.92 C 99.63999999999999 48.800000000000004 100.57999999999998 48.120000000000005 101.60999999999999 48.120000000000005 C 102.64999999999999 48.120000000000005 103.57999999999998 48.800000000000004 104.10999999999999 49.92 C 104.87999999999998 51.550000000000004 106.30999999999999 52.52 107.89999999999999 52.52 z M 107.86 47.61 C 109.46 47.61 110.87 46.63 111.65 45 C 112.18 43.87 113.12 43.2 114.15 43.2 C 115.19000000000001 43.2 116.12 43.870000000000005 116.65 45 C 117.43 46.64 118.85000000000001 47.6 120.45 47.6 C 122.05 47.6 123.45 46.63 124.23 45 C 124.77000000000001 43.87 125.7 43.2 126.73 43.2 C 127.77000000000001 43.2 128.71 43.870000000000005 129.24 45 C 129.41120827244757 45.35898508739002 129.84101491261 45.511208272447554 130.20000000000002 45.34 C 130.55898508739003 45.16879172755246 130.71120827244758 44.73898508739002 130.54000000000002 44.38 C 129.76000000000002 42.74 128.34000000000003 41.78 126.74000000000002 41.78 C 125.15000000000002 41.78 123.74000000000002 42.75 122.96000000000002 44.38 C 122.42000000000002 45.510000000000005 121.49000000000002 46.18 120.46000000000002 46.18 C 119.42000000000002 46.18 118.48000000000002 45.51 117.95000000000002 44.38 C 117.17000000000002 42.74 115.75000000000001 41.78 114.16000000000001 41.78 C 112.56000000000002 41.78 111.15 42.75 110.37 44.38 C 109.84 45.510000000000005 108.9 46.18 107.87 46.18 C 106.84 46.18 105.9 45.51 105.37 44.38 C 104.59 42.74 103.17 41.78 101.57000000000001 41.78 C 99.98 41.78 98.57000000000001 42.75 97.79 44.38 C 97.61879172755246 44.73898508739002 97.77101491260999 45.16879172755245 98.13000000000001 45.34 C 98.48898508739002 45.51120827244755 98.91879172755246 45.35898508739002 99.09 45 C 99.62 43.87 100.55 43.2 101.59 43.2 C 102.62 43.2 103.56 43.870000000000005 104.09 45 C 104.85000000000001 46.63 106.27000000000001 47.6 107.86 47.6 z M 42.86 -19.269999999999996 L 25.77 -6.92 L 8.72 5.44 L 27.950000000000003 14.04 L 47.19 22.65 L 45.02 1.7 z M 42.86 80.73 L 25.77 93.08 L 8.72 105.44 L 27.950000000000003 114.03999999999999 L 47.19 122.64999999999999 L 45.019999999999996 101.69 z M 7.9 52.52 C 9.5 52.52 10.9 51.540000000000006 11.68 49.910000000000004 C 12.219999999999999 48.78 13.15 48.11000000000001 14.18 48.11000000000001 C 15.219999999999999 48.11000000000001 16.16 48.78000000000001 16.689999999999998 49.910000000000004 C 17.47 51.550000000000004 18.889999999999997 52.510000000000005 20.49 52.510000000000005 C 22.08 52.510000000000005 23.49 51.540000000000006 24.27 49.910000000000004 C 24.8 48.78 25.74 48.11000000000001 26.77 48.11000000000001 C 27.63 48.11000000000001 28.419999999999998 48.57000000000001 28.97 49.38000000000001 C 29.169999999999998 49.67000000000001 29.54 49.78000000000001 29.86 49.63000000000001 L 29.88 49.63000000000001 C 30.064752223877775 49.54428295732963 30.20301095221797 49.382351048819125 30.258709235151862 49.1864467433275 C 30.314407518085755 48.99054243783587 30.282021653401973 48.78009392934797 30.169999999999998 48.61000000000001 C 29.436368144346282 47.43402702813004 28.155889580452396 46.71093325087231 26.77 46.690000000000005 C 25.169999999999998 46.690000000000005 23.759999999999998 47.67 22.99 49.300000000000004 C 22.45 50.42 21.509999999999998 51.1 20.49 51.1 C 19.45 51.1 18.509999999999998 50.42 17.979999999999997 49.300000000000004 C 17.199999999999996 47.660000000000004 15.779999999999998 46.7 14.179999999999996 46.7 C 12.589999999999996 46.7 11.179999999999996 47.67 10.399999999999997 49.300000000000004 C 9.869999999999997 50.42 8.929999999999996 51.1 7.899999999999997 51.1 C 6.859999999999997 51.1 5.929999999999997 50.42 5.399999999999997 49.300000000000004 C 4.6199999999999966 47.660000000000004 3.1999999999999966 46.7 1.599999999999997 46.7 C 0.01999999999999691 46.7 -1.400000000000003 47.650000000000006 -2.170000000000003 49.28 C -2.3332184019486837 49.6117873755205 -2.2264778525892606 50.01313184111193 -1.920000000000003 50.22 C -1.550000000000003 50.449999999999996 -1.070000000000003 50.3 -0.890000000000003 49.92 C -0.360000000000003 48.800000000000004 0.579999999999997 48.120000000000005 1.609999999999997 48.120000000000005 C 2.649999999999997 48.120000000000005 3.579999999999997 48.800000000000004 4.109999999999997 49.92 C 4.879999999999997 51.550000000000004 6.299999999999997 52.52 7.899999999999997 52.52 z M 7.86 47.61 C 9.46 47.61 10.870000000000001 46.63 11.65 45 C 12.18 43.87 13.120000000000001 43.2 14.15 43.2 C 15.190000000000001 43.2 16.12 43.870000000000005 16.65 45 C 17.43 46.64 18.849999999999998 47.6 20.45 47.6 C 22.04 47.6 23.45 46.63 24.23 45 C 24.77 43.87 25.7 43.2 26.73 43.2 C 27.77 43.2 28.71 43.870000000000005 29.240000000000002 45 C 29.411208272447546 45.35898508739002 29.841014912609985 45.51120827244755 30.200000000000003 45.34 C 30.558985087390017 45.16879172755246 30.711208272447546 44.73898508739002 30.540000000000003 44.38 C 29.76 42.74 28.340000000000003 41.78 26.740000000000002 41.78 C 25.150000000000002 41.78 23.740000000000002 42.75 22.96 44.38 C 22.42 45.510000000000005 21.490000000000002 46.18 20.46 46.18 C 19.42 46.18 18.48 45.51 17.950000000000003 44.38 C 17.17 42.74 15.750000000000004 41.78 14.160000000000004 41.78 C 12.560000000000004 41.78 11.150000000000004 42.75 10.370000000000005 44.38 C 9.840000000000005 45.510000000000005 8.900000000000004 46.18 7.8700000000000045 46.18 C 6.840000000000005 46.18 5.900000000000005 45.51 5.3700000000000045 44.38 C 4.590000000000004 42.74 3.1700000000000044 41.78 1.5700000000000047 41.78 C -0.019999999999995355 41.78 -1.4299999999999953 42.75 -2.209999999999995 44.38 C -2.3812082724475405 44.73898508739002 -2.2289850873900097 45.16879172755245 -1.869999999999994 45.34 C -1.5110149126099781 45.51120827244755 -1.0812082724475403 45.35898508739002 -0.909999999999995 45 C -0.379999999999995 43.87 0.5500000000000049 43.2 1.590000000000005 43.2 C 2.620000000000005 43.2 3.560000000000005 43.870000000000005 4.090000000000005 45 C 4.850000000000005 46.63 6.260000000000005 47.6 7.860000000000005 47.6 z" stroke-linecap="round" />
</g>
<g transform="matrix(0 5.48 -5.21 0 1723.77 1708.1)"  >
<path style="stroke: none; stroke-width: 1; stroke-dasharray: none; stroke-linecap: butt; stroke-dashoffset: 0; stroke-linejoin: miter; stroke-miterlimit: 4; fill: rgb(90,140,140); fill-rule: nonzero; opacity: 1;" vector-effect="non-scaling-stroke"  transform=" translate(-46.73, -43.72)" d="M 53.04 81.06 C 53.22225396744416 82.15076238091582 54.25423761908418 82.88725396744417 55.345 82.705 C 56.43576238091582 82.52274603255584 57.17225396744416 81.49076238091583 56.99 80.4 C 56.80774603255584 79.30923761908419 55.77576238091582 78.57274603255584 54.685 78.75500000000001 C 53.59423761908418 78.93725396744416 52.85774603255584 79.96923761908418 53.04 81.06 z M 14.89 63.92 C 16.18846676371329 65.06904392080253 18.156943479423937 65.00901112465777 19.382977302040857 63.782977302040855 C 20.60901112465778 62.556943479423936 20.669043920802533 60.588466763713285 19.52 59.29 C 18.240072590583242 58.01481665227636 16.169927409416754 58.01481665227636 14.89 59.29 C 14.272594258378593 59.902150218276766 13.925294098803027 60.73556470078368 13.925294098803027 61.605000000000004 C 13.925294098803027 62.474435299216324 14.272594258378593 63.307849781723235 14.89 63.92 z M 67.69 11.380000000000003 C 68.37957033372416 14.489840351512814 71.38244252661582 16.516048857643415 74.52433308445043 15.991512891632043 C 77.66622364228505 15.46697692562067 79.84804049487482 12.57518897715122 79.49 9.41 C 78.80042966627583 6.30015964848719 75.79755747338417 4.273951142356589 72.65566691554956 4.798487108367961 C 69.51377635771495 5.323023074379334 67.33195950512517 8.214811022848785 67.69 11.380000000000003 z" stroke-linecap="round" />
</g>
<g transform="matrix(-1.58 -2.7 2.44 -1.43 1069.17 290.07)"  >
<path style="stroke: none; stroke-width: 1; stroke-dasharray: none; stroke-linecap: butt; stroke-dashoffset: 0; stroke-linejoin: miter; stroke-miterlimit: 4; fill: rgb(223,52,98); fill-rule: nonzero; opacity: 1;" vector-effect="non-scaling-stroke"  transform=" translate(-64.17, -51.69)" d="M 107.9 52.52 C 109.5 52.52 110.9 51.540000000000006 111.68 49.910000000000004 C 112.22000000000001 48.78 113.15 48.11000000000001 114.18 48.11000000000001 C 115.22000000000001 48.11000000000001 116.16000000000001 48.78000000000001 116.69000000000001 49.910000000000004 C 117.47000000000001 51.550000000000004 118.89000000000001 52.510000000000005 120.49000000000001 52.510000000000005 C 122.08000000000001 52.510000000000005 123.49000000000001 51.540000000000006 124.27000000000001 49.910000000000004 C 124.80000000000001 48.78 125.74000000000001 48.11000000000001 126.77000000000001 48.11000000000001 C 127.63000000000001 48.11000000000001 128.42000000000002 48.57000000000001 128.97 49.38000000000001 C 129.17 49.67000000000001 129.55 49.78000000000001 129.85999999999999 49.63000000000001 L 129.88 49.63000000000001 C 130.06475222387778 49.54428295732962 130.20301095221797 49.382351048819125 130.25870923515185 49.186446743327494 C 130.31440751808574 48.99054243783587 130.28202165340196 48.78009392934796 130.17 48.61000000000001 C 129.43636814434626 47.43402702813003 128.15588958045237 46.71093325087231 126.76999999999998 46.690000000000005 C 125.16999999999999 46.690000000000005 123.76999999999998 47.67 122.98999999999998 49.300000000000004 C 122.44999999999997 50.42 121.50999999999998 51.1 120.48999999999998 51.1 C 119.44999999999997 51.1 118.50999999999998 50.42 117.97999999999998 49.300000000000004 C 117.19999999999997 47.660000000000004 115.77999999999997 46.7 114.17999999999998 46.7 C 112.58999999999997 46.7 111.17999999999998 47.67 110.39999999999998 49.300000000000004 C 109.86999999999998 50.42 108.92999999999998 51.1 107.89999999999998 51.1 C 106.85999999999997 51.1 105.92999999999998 50.42 105.39999999999998 49.300000000000004 C 104.61999999999998 47.660000000000004 103.19999999999997 46.7 101.59999999999998 46.7 C 100.01999999999998 46.7 98.59999999999998 47.650000000000006 97.82999999999998 49.28 C 97.6667815980513 49.6117873755205 97.77352214741073 50.01313184111193 98.07999999999998 50.22 C 98.44999999999999 50.449999999999996 98.92999999999998 50.3 99.10999999999999 49.92 C 99.63999999999999 48.800000000000004 100.57999999999998 48.120000000000005 101.60999999999999 48.120000000000005 C 102.64999999999999 48.120000000000005 103.57999999999998 48.800000000000004 104.10999999999999 49.92 C 104.87999999999998 51.550000000000004 106.30999999999999 52.52 107.89999999999999 52.52 z M 107.86 47.61 C 109.46 47.61 110.87 46.63 111.65 45 C 112.18 43.87 113.12 43.2 114.15 43.2 C 115.19000000000001 43.2 116.12 43.870000000000005 116.65 45 C 117.43 46.64 118.85000000000001 47.6 120.45 47.6 C 122.05 47.6 123.45 46.63 124.23 45 C 124.77000000000001 43.87 125.7 43.2 126.73 43.2 C 127.77000000000001 43.2 128.71 43.870000000000005 129.24 45 C 129.41120827244757 45.35898508739002 129.84101491261 45.511208272447554 130.20000000000002 45.34 C 130.55898508739003 45.16879172755246 130.71120827244758 44.73898508739002 130.54000000000002 44.38 C 129.76000000000002 42.74 128.34000000000003 41.78 126.74000000000002 41.78 C 125.15000000000002 41.78 123.74000000000002 42.75 122.96000000000002 44.38 C 122.42000000000002 45.510000000000005 121.49000000000002 46.18 120.46000000000002 46.18 C 119.42000000000002 46.18 118.48000000000002 45.51 117.95000000000002 44.38 C 117.17000000000002 42.74 115.75000000000001 41.78 114.16000000000001 41.78 C 112.56000000000002 41.78 111.15 42.75 110.37 44.38 C 109.84 45.510000000000005 108.9 46.18 107.87 46.18 C 106.84 46.18 105.9 45.51 105.37 44.38 C 104.59 42.74 103.17 41.78 101.57000000000001 41.78 C 99.98 41.78 98.57000000000001 42.75 97.79 44.38 C 97.61879172755246 44.73898508739002 97.77101491260999 45.16879172755245 98.13000000000001 45.34 C 98.48898508739002 45.51120827244755 98.91879172755246 45.35898508739002 99.09 45 C 99.62 43.87 100.55 43.2 101.59 43.2 C 102.62 43.2 103.56 43.870000000000005 104.09 45 C 104.85000000000001 46.63 106.27000000000001 47.6 107.86 47.6 z M 42.86 -19.269999999999996 L 25.77 -6.92 L 8.72 5.44 L 27.950000000000003 14.04 L 47.19 22.65 L 45.02 1.7 z M 42.86 80.73 L 25.77 93.08 L 8.72 105.44 L 27.950000000000003 114.03999999999999 L 47.19 122.64999999999999 L 45.019999999999996 101.69 z M 7.9 52.52 C 9.5 52.52 10.9 51.540000000000006 11.68 49.910000000000004 C 12.219999999999999 48.78 13.15 48.11000000000001 14.18 48.11000000000001 C 15.219999999999999 48.11000000000001 16.16 48.78000000000001 16.689999999999998 49.910000000000004 C 17.47 51.550000000000004 18.889999999999997 52.510000000000005 20.49 52.510000000000005 C 22.08 52.510000000000005 23.49 51.540000000000006 24.27 49.910000000000004 C 24.8 48.78 25.74 48.11000000000001 26.77 48.11000000000001 C 27.63 48.11000000000001 28.419999999999998 48.57000000000001 28.97 49.38000000000001 C 29.169999999999998 49.67000000000001 29.54 49.78000000000001 29.86 49.63000000000001 L 29.88 49.63000000000001 C 30.064752223877775 49.54428295732963 30.20301095221797 49.382351048819125 30.258709235151862 49.1864467433275 C 30.314407518085755 48.99054243783587 30.282021653401973 48.78009392934797 30.169999999999998 48.61000000000001 C 29.436368144346282 47.43402702813004 28.155889580452396 46.71093325087231 26.77 46.690000000000005 C 25.169999999999998 46.690000000000005 23.759999999999998 47.67 22.99 49.300000000000004 C 22.45 50.42 21.509999999999998 51.1 20.49 51.1 C 19.45 51.1 18.509999999999998 50.42 17.979999999999997 49.300000000000004 C 17.199999999999996 47.660000000000004 15.779999999999998 46.7 14.179999999999996 46.7 C 12.589999999999996 46.7 11.179999999999996 47.67 10.399999999999997 49.300000000000004 C 9.869999999999997 50.42 8.929999999999996 51.1 7.899999999999997 51.1 C 6.859999999999997 51.1 5.929999999999997 50.42 5.399999999999997 49.300000000000004 C 4.6199999999999966 47.660000000000004 3.1999999999999966 46.7 1.599999999999997 46.7 C 0.01999999999999691 46.7 -1.400000000000003 47.650000000000006 -2.170000000000003 49.28 C -2.3332184019486837 49.6117873755205 -2.2264778525892606 50.01313184111193 -1.920000000000003 50.22 C -1.550000000000003 50.449999999999996 -1.070000000000003 50.3 -0.890000000000003 49.92 C -0.360000000000003 48.800000000000004 0.579999999999997 48.120000000000005 1.609999999999997 48.120000000000005 C 2.649999999999997 48.120000000000005 3.579999999999997 48.800000000000004 4.109999999999997 49.92 C 4.879999999999997 51.550000000000004 6.299999999999997 52.52 7.899999999999997 52.52 z M 7.86 47.61 C 9.46 47.61 10.870000000000001 46.63 11.65 45 C 12.18 43.87 13.120000000000001 43.2 14.15 43.2 C 15.190000000000001 43.2 16.12 43.870000000000005 16.65 45 C 17.43 46.64 18.849999999999998 47.6 20.45 47.6 C 22.04 47.6 23.45 46.63 24.23 45 C 24.77 43.87 25.7 43.2 26.73 43.2 C 27.77 43.2 28.71 43.870000000000005 29.240000000000002 45 C 29.411208272447546 45.35898508739002 29.841014912609985 45.51120827244755 30.200000000000003 45.34 C 30.558985087390017 45.16879172755246 30.711208272447546 44.73898508739002 30.540000000000003 44.38 C 29.76 42.74 28.340000000000003 41.78 26.740000000000002 41.78 C 25.150000000000002 41.78 23.740000000000002 42.75 22.96 44.38 C 22.42 45.510000000000005 21.490000000000002 46.18 20.46 46.18 C 19.42 46.18 18.48 45.51 17.950000000000003 44.38 C 17.17 42.74 15.750000000000004 41.78 14.160000000000004 41.78 C 12.560000000000004 41.78 11.150000000000004 42.75 10.370000000000005 44.38 C 9.840000000000005 45.510000000000005 8.900000000000004 46.18 7.8700000000000045 46.18 C 6.840000000000005 46.18 5.900000000000005 45.51 5.3700000000000045 44.38 C 4.590000000000004 42.74 3.1700000000000044 41.78 1.5700000000000047 41.78 C -0.019999999999995355 41.78 -1.4299999999999953 42.75 -2.209999999999995 44.38 C -2.3812082724475405 44.73898508739002 -2.2289850873900097 45.16879172755245 -1.869999999999994 45.34 C -1.5110149126099781 45.51120827244755 -1.0812082724475403 45.35898508739002 -0.909999999999995 45 C -0.379999999999995 43.87 0.5500000000000049 43.2 1.590000000000005 43.2 C 2.620000000000005 43.2 3.560000000000005 43.870000000000005 4.090000000000005 45 C 4.850000000000005 46.63 6.260000000000005 47.6 7.860000000000005 47.6 z" stroke-linecap="round" />
</g>
<g transform="matrix(0 5.48 -5.21 0 1228.76 254.96)"  >
<path style="stroke: none; stroke-width: 1; stroke-dasharray: none; stroke-linecap: butt; stroke-dashoffset: 0; stroke-linejoin: miter; stroke-miterlimit: 4; fill: rgb(90,140,140); fill-rule: nonzero; opacity: 1;" vector-effect="non-scaling-stroke"  transform=" translate(-46.73, -43.72)" d="M 53.04 81.06 C 53.22225396744416 82.15076238091582 54.25423761908418 82.88725396744417 55.345 82.705 C 56.43576238091582 82.52274603255584 57.17225396744416 81.49076238091583 56.99 80.4 C 56.80774603255584 79.30923761908419 55.77576238091582 78.57274603255584 54.685 78.75500000000001 C 53.59423761908418 78.93725396744416 52.85774603255584 79.96923761908418 53.04 81.06 z M 14.89 63.92 C 16.18846676371329 65.06904392080253 18.156943479423937 65.00901112465777 19.382977302040857 63.782977302040855 C 20.60901112465778 62.556943479423936 20.669043920802533 60.588466763713285 19.52 59.29 C 18.240072590583242 58.01481665227636 16.169927409416754 58.01481665227636 14.89 59.29 C 14.272594258378593 59.902150218276766 13.925294098803027 60.73556470078368 13.925294098803027 61.605000000000004 C 13.925294098803027 62.474435299216324 14.272594258378593 63.307849781723235 14.89 63.92 z M 67.69 11.380000000000003 C 68.37957033372416 14.489840351512814 71.38244252661582 16.516048857643415 74.52433308445043 15.991512891632043 C 77.66622364228505 15.46697692562067 79.84804049487482 12.57518897715122 79.49 9.41 C 78.80042966627583 6.30015964848719 75.79755747338417 4.273951142356589 72.65566691554956 4.798487108367961 C 69.51377635771495 5.323023074379334 67.33195950512517 8.214811022848785 67.69 11.380000000000003 z" stroke-linecap="round" />
</g>
<g transform="matrix(0 6.37 -5.75 0 1782.79 318.69)"  >
<path style="stroke: none; stroke-width: 1; stroke-dasharray: none; stroke-linecap: butt; stroke-dashoffset: 0; stroke-linejoin: miter; stroke-miterlimit: 4; fill: rgb(225,226,167); fill-rule: nonzero; opacity: 1;" vector-effect="non-scaling-stroke"  transform=" translate(-55.14, -58.95)" d="M 80.37 64.6 C 87.86726547895303 64.91480230740355 93.68980230740355 71.24773452104697 93.37500000000001 78.74499999999999 C 93.06019769259646 86.24226547895302 86.72726547895303 92.06480230740355 79.23000000000002 91.75 C 71.73549594479614 91.43519769259645 65.91519769259645 85.10450405520386 66.23 77.61 C 66.54480230740356 70.11549594479612 72.87549594479614 64.29519769259645 80.37 64.61 z M 26.83 26.14 L 25.159999999999997 30.91 L 23.479999999999997 35.69 L 20.179999999999996 31.849999999999998 L 16.9 28 L 21.869999999999997 27.07 z M 81.15 41.86 L 82.91000000000001 46.59 L 84.69000000000001 51.330000000000005 L 79.70000000000002 50.50000000000001 L 74.71000000000002 49.660000000000004 L 77.93000000000002 45.760000000000005 z" stroke-linecap="round" />
</g>
<g transform="matrix(5.18 -1.78 1.69 4.93 1772.01 517.77)"  >
<path style="stroke: none; stroke-width: 1; stroke-dasharray: none; stroke-linecap: butt; stroke-dashoffset: 0; stroke-linejoin: miter; stroke-miterlimit: 4; fill: rgb(90,140,140); fill-rule: nonzero; opacity: 1;" vector-effect="non-scaling-stroke"  transform=" translate(-46.73, -43.72)" d="M 53.04 81.06 C 53.22225396744416 82.15076238091582 54.25423761908418 82.88725396744417 55.345 82.705 C 56.43576238091582 82.52274603255584 57.17225396744416 81.49076238091583 56.99 80.4 C 56.80774603255584 79.30923761908419 55.77576238091582 78.57274603255584 54.685 78.75500000000001 C 53.59423761908418 78.93725396744416 52.85774603255584 79.96923761908418 53.04 81.06 z M 14.89 63.92 C 16.18846676371329 65.06904392080253 18.156943479423937 65.00901112465777 19.382977302040857 63.782977302040855 C 20.60901112465778 62.556943479423936 20.669043920802533 60.588466763713285 19.52 59.29 C 18.240072590583242 58.01481665227636 16.169927409416754 58.01481665227636 14.89 59.29 C 14.272594258378593 59.902150218276766 13.925294098803027 60.73556470078368 13.925294098803027 61.605000000000004 C 13.925294098803027 62.474435299216324 14.272594258378593 63.307849781723235 14.89 63.92 z M 67.69 11.380000000000003 C 68.37957033372416 14.489840351512814 71.38244252661582 16.516048857643415 74.52433308445043 15.991512891632043 C 77.66622364228505 15.46697692562067 79.84804049487482 12.57518897715122 79.49 9.41 C 78.80042966627583 6.30015964848719 75.79755747338417 4.273951142356589 72.65566691554956 4.798487108367961 C 69.51377635771495 5.323023074379334 67.33195950512517 8.214811022848785 67.69 11.380000000000003 z" stroke-linecap="round" />
</g>
<g transform="matrix(4.19 0 0 4.29 1604.05 30.96)"  >
<path style="stroke: none; stroke-width: 1; stroke-dasharray: none; stroke-linecap: butt; stroke-dashoffset: 0; stroke-linejoin: miter; stroke-miterlimit: 4; fill: rgb(242,144,58); fill-rule: nonzero; opacity: 1;" vector-effect="non-scaling-stroke"  transform=" translate(-48.83, -48.57)" d="M 92.4 11.82 C 92.82335544029489 11.806346686278365 93.22254952850187 12.016896973788896 93.4503551041896 12.373997605948022 C 93.67816067987731 12.731098238107146 93.70082909906647 13.181845935163533 93.51 13.559999999999999 C 92.13432514596018 16.692420283515986 93.43506680329183 20.354409309871905 96.47847330545905 21.917168088182308 C 99.52187980762625 23.47992686649271 103.25588837535332 22.40323168938366 105 19.46 C 105.30219076155352 18.879230758748967 106.01411249820002 18.647856194338857 106.6 18.94 C 106.88 19.080000000000002 107.08999999999999 19.330000000000002 107.19 19.64 C 107.27 19.91 107.24 20.240000000000002 107.09 20.52 C 106.02495222015402 22.599280340324942 104.17515501761632 24.168369017963933 101.95 24.88 C 99.72231795874262 25.60537115474817 97.29723752917171 25.411425670044746 95.21315635953152 24.341221826175467 C 93.12907518989134 23.271017982306184 91.55845760347486 21.413118539880948 90.85000000000001 19.18 C 90.12969816923302 16.957259638763823 90.32400663088309 14.539198782674076 91.39000000000001 12.460000000000003 C 91.58229532493968 12.080823909487936 91.96514432768176 11.835800547733008 92.39000000000001 11.82 z M -7.599999999999994 11.82 C -7.176644559705108 11.806346686278365 -6.777450471498123 12.016896973788896 -6.549644895810405 12.373997605948022 C -6.321839320122688 12.731098238107146 -6.299170900933532 13.181845935163533 -6.489999999999993 13.559999999999999 C -8.10134989543603 16.731104118020315 -6.850656751312931 20.608252864801933 -3.689999999999999 22.240000000000002 C -0.5241863587914768 23.8543293649225 3.3511028553713125 22.61316530785193 4.990000000000004 19.46 C 5.292190761553526 18.879230758748967 6.004112498200026 18.647856194338853 6.590000000000005 18.94 C 6.890000000000005 19.080000000000002 7.090000000000005 19.330000000000002 7.190000000000005 19.64 C 7.270000000000005 19.91 7.240000000000005 20.240000000000002 7.090000000000005 20.52 C 6.025837235281945 22.59998182715536 4.175702754288562 24.16935660091628 1.9500000000000028 24.88 C -0.2777255303846142 25.602566763592332 -2.7015836753250335 25.407323220373804 -4.784930595789083 24.337496423378752 C -6.868277516253133 23.267669626383704 -8.439237881493128 21.411519880590664 -9.149999999999995 19.18 C -9.870301830766985 16.957259638763826 -9.675993369116917 14.539198782674076 -8.609999999999996 12.46 C -8.41770467506033 12.080823909487936 -8.034855672318258 11.835800547733008 -7.609999999999997 11.82 z M 53.900000000000006 27.08 C 55.74000000000001 27.139999999999997 57.480000000000004 27.84 58.88000000000001 29.069999999999997 C 59.163110651343445 29.323417582883113 59.29222540126444 29.706964340001363 59.22000000000001 30.08 C 59.12358828640977 30.55591582439015 58.72398733329397 30.91066360929908 58.240000000000016 30.95 C 57.95000000000002 30.97 57.680000000000014 30.88 57.460000000000015 30.68 C 55.026571816462955 28.764276070200154 51.5208404203044 29.08129590518708 49.47055146883909 31.4024779564574 C 47.42026251737377 33.723660007727716 47.53849523038963 37.241709925417894 49.740000000000016 39.42 C 49.95778708063703 39.602121169057 50.09165480504779 39.86535927361243 50.110539566511356 40.14863069556591 C 50.129424327974924 40.43190211751939 50.03168438491587 40.710580733239475 49.84000000000002 40.92 C 49.640000000000015 41.14 49.390000000000015 41.27 49.100000000000016 41.29 C 48.820000000000014 41.31 48.54000000000001 41.21 48.33000000000001 41.019999999999996 C 46.74080466335127 39.62444280799717 45.775803144012556 37.65123074606578 45.65000000000001 35.53999999999999 C 45.50497061034229 33.4269351867074 46.212357575522844 31.3438194336688 47.61413099165199 29.756019786712862 C 49.01590440778113 28.16822013975693 50.995256149273345 27.208046070894063 53.110000000000014 27.089999999999993 C 53.37000000000001 27.069999999999993 53.640000000000015 27.069999999999993 53.90000000000001 27.07999999999999 z M 46.720000000000006 50.42 C 50.3497660757139 50.24404886671985 53.75703391815597 52.17168129266959 55.475834385764486 55.37353786632413 C 57.194634853373 58.575394439978666 56.91839773572065 62.48038278497329 54.76597341644562 65.40839065987723 C 52.61354909717059 68.33639853478115 48.96885018796022 69.76517800723781 45.4 69.08 C 40.64075069748953 68.26143714231134 37.27602152547258 63.96982318620925 37.61678049694231 59.152730453159904 C 37.95753946841204 54.33563772011057 41.892911997630655 50.560429672134475 46.72 50.42 z M 46.78000000000001 52.2 C 42.571590206289365 52.32978691621024 39.265213083789774 55.846590206289356 39.39500000000001 60.055 C 39.524786916210246 64.26340979371065 43.041590206289364 67.56978691621023 47.25000000000001 67.44 C 51.45840979371066 67.31021308378976 54.76478691621024 63.793409793710644 54.635000000000005 59.585 C 54.50521308378977 55.37659020628935 50.98840979371066 52.07021308378976 46.78000000000001 52.199999999999996 z M 25.38000000000001 68.93 L 30.210000000000008 78.16000000000001 L 16.480000000000008 85.33000000000001 L 11.660000000000007 76.11000000000001 z" stroke-linecap="round" />
</g>
</svg>