<svg width="801.19718" height="614.27258" xmlns="http://www.w3.org/2000/svg" data-name="Layer 1">
 <g>
  <title>Layer 1</title>
  <path d="m543.77279,612.31086c-0.78106,0.66616 -1.587,1.31586 -2.40141,1.95737l-98.87145,0c-0.56742,-0.64151 -1.13525,-1.29121 -1.69424,-1.95737a109.34753,109.34753 0 0 1 -11.999,-17.641c-8.11741,-14.6227 -10.914,-33.79337 -10.914,-53.31768c0,-1.19253 0.00843,-2.385 0.03293,-3.57752c0.09076,-5.47737 0.39515,-10.96291 0.84732,-16.358c0.08232,-0.93757 0.16465,-1.86691 0.255,-2.79625c0.73207,-7.739 1.7601,-15.27235 2.92787,-22.31229c0.14778,-0.89646 0.296,-1.78469 0.45218,-2.66469a365.995,365.995 0 0 1 9.55665,-41.42544s0.13171,0.03293 0.38631,0.09869c0.73207,0.20561 2.48373,0.69086 5.05822,1.45571c7.089,2.1054 20.404,6.34913 35.75893,12.6571c0.83889,0.33717 1.68581,0.6908 2.54116,1.05267a283.26673,283.26673 0 0 1 37.61742,18.89113c0.74853,0.45232 1.48863,0.91288 2.22873,1.37343l0,0.06581l-1.61994,52.44587l14.47472,-43.6624q4.42855,3.3678 8.46276,6.98236c0.7401,0.65793 1.4802,1.33232 2.19581,2.03141a81.02719,81.02719 0 0 1 15.46139,19.28578c21.65444,39.0404 12.56684,67.74292 -10.75736,87.41531z" fill="#7f7f7f" id="svg_1"/>
  <path d="m529.83296,614.26823l-2.63191,0c-0.01646,-0.64974 -0.041,-1.29944 -0.08232,-1.95737c-1.06056,-19.72991 -9.52332,-41.51594 -21.04567,-62.54524c-0.41122,-0.7649 -0.83046,-1.54616 -1.2746,-2.31106c-5.59272,-10.00064 -11.82674,-19.78749 -18.266,-29.08909c-0.49353,-0.72374 -1.00353,-1.45566 -1.51353,-2.17939c-8.56958,-12.22943 -17.41866,-23.546 -25.41278,-33.20944c-0.5594,-0.69086 -1.13485,-1.36525 -1.70228,-2.03141c-11.85124,-14.21144 -21.63,-24.56577 -25.55293,-28.62854c-0.58389,-0.60035 -1.03606,-1.06091 -1.34848,-1.38166c-0.28793,-0.31253 -0.46061,-0.477 -0.49354,-0.5099l0.92121,-0.92111l0.008,-0.02465l0.93768,-0.92116c0.03293,0.04116 0.60035,0.58394 1.60348,1.62843c0.84732,0.86354 2.00666,2.07248 3.42984,3.58576c4.96747,5.26352 13.18326,14.21967 22.69052,25.57733c0.551,0.658 1.11838,1.34055 1.68581,2.02317c6.489,7.83772 13.52058,16.71987 20.48668,26.26819q2.62749,3.60219 5.09918,7.14686c0.518,0.72373 1.028,1.44747 1.52116,2.17121q10.44915,15.075 18.24992,28.99863l1.29909,2.32743c13.25755,24.17925 20.39633,45.59512 21.31754,64.02564c0.03256,0.65793 0.05747,1.30763 0.07393,1.95737z" fill="#fff" id="svg_2"/>
  <path d="m474.61538,464.505c-0.46863,0.64975 -0.9457,1.29121 -1.44727,1.9245a70.24156,70.24156 0 0 1 -13.06841,12.92023c-0.71561,0.52636 -1.44767,1.06919 -2.19581,1.5955a72.0404,72.0404 0 0 1 -6.33281,3.94767a70.82539,70.82539 0 0 1 -29.16308,8.75054c-0.32889,0.03293 -0.66622,0.05757 -0.9951,0.074c-0.14818,0.88 -0.28793,1.76 -0.44414,2.65641c0.32888,-0.01642 0.65777,-0.03288 0.98706,-0.06576a73.30553,73.30553 0 0 0 30.89829,-9.10423a75.17819,75.17819 0 0 0 6.75206,-4.22726c0.7401,-0.51813 1.46373,-1.06091 2.17934,-1.60374a73.267,73.267 0 0 0 13.92376,-13.89073c0.47707,-0.63323 0.9457,-1.27474 1.40631,-1.91621c-0.85535,-0.36183 -1.68581,-0.71546 -2.5002,-1.06092z" fill="#fff" id="svg_3"/>
  <path d="m514.22339,484.51457c-0.28792,0.625 -0.59232,1.24186 -0.89671,1.85868a70.84226,70.84226 0 0 1 -25.95531,28.4147c-0.77343,0.48525 -1.55449,0.954 -2.35242,1.39813c-0.23853,0.1398 -0.49313,0.28783 -0.73167,0.41944a71.27838,71.27838 0 0 1 -65.25933,2.0149c-0.247,-0.1151 -0.4855,-0.23026 -0.724,-0.34541c-0.09035,0.93758 -0.17267,1.87515 -0.23813,2.82091c0.2301,0.10692 0.46864,0.22207 0.70717,0.32075a73.88,73.88 0 0 0 66.78893,-2.50014c0.32889,-0.181 0.64974,-0.36187 0.9706,-0.55106c0.79753,-0.46056 1.587,-0.92934 2.36005,-1.40631a73.40144,73.40144 0 0 0 26.66288,-29.14667c0.32086,-0.61682 0.62525,-1.24187 0.92121,-1.87515c-0.74817,-0.47697 -1.4967,-0.95399 -2.25327,-1.42277z" fill="#fff" id="svg_4"/>
  <path d="m537.30866,501.71141c-0.13975,0.625 -0.2795,1.25009 -0.43571,1.86691a71.08037,71.08037 0 0 1 -29.7305,42.37947c-0.765,0.51814 -1.55449,1.01157 -2.344,1.49677c-0.84732,0.51 -1.69424,1.01985 -2.56605,1.49682a71.45879,71.45879 0 0 1 -84.30678,-11.1767c-0.18914,-0.17273 -0.36985,-0.35364 -0.551,-0.5346c0,1.2254 -0.008,2.43439 0.00843,3.65156c0.16425,0.15626 0.33692,0.31253 0.5096,0.46056a74.08268,74.08268 0 0 0 85.62273,9.91018c0.87182,-0.477 1.72717,-0.97045 2.55763,-1.49676c0.806,-0.477 1.58742,-0.97051 2.36848,-1.4804a73.80814,73.80814 0 0 0 30.62722,-42.67549c0.15621,-0.59217 0.31242,-1.18429 0.45217,-1.78469c-0.71515,-0.72375 -1.46369,-1.40631 -2.21222,-2.11363z" fill="#fff" id="svg_5"/>
  <path d="m468.35551,367.78813l-468.35551,0l0,-351.389l468.35551,0l0,351.389z" fill="#fff" id="svg_6"/>
  <circle cx="113.49141" cy="71.09365" r="18.64295" fill="#eb5027" id="svg_7"/>
  <path d="m156.54772,58.66501a3.10716,3.10716 0 0 0 0,6.21431l226.85872,0a3.10716,3.10716 0 0 0 0,-6.21431l-226.85872,0z" fill="#eb5027" id="svg_8"/>
  <path d="m156.54772,77.30792a3.10716,3.10716 0 1 0 -0.01311,6.21431l143.42243,0a3.10716,3.10716 0 1 0 0,-6.21431l-143.40932,0z" fill="#eb5027" id="svg_9"/>
  <path d="m468.35551,367.78813l-468.35551,0l0,-351.389l468.35551,0l0,351.389zm-463.11344,-5.24207l457.87137,0l0,-340.90483l-457.87137,0l0,340.90483z" fill="#061105" id="svg_10"/>
  <path d="m26.17765,123.55821l0,209l416,0l0,-209l-416,0zm414,51.75l-101.5,0l0,-49.75l101.5,0l0,49.75zm-205,0l0,-49.75l101.5,0l0,49.75l-101.5,0zm101.5,2l0,49.75l-101.5,0l0,-49.75l101.5,0zm-103.5,-2l-101.5,0l0,-49.75l101.5,0l0,49.75zm0,2l0,49.75l-101.5,0l0,-49.75l101.5,0zm-103.5,49.75l-101.5,0l0,-49.75l101.5,0l0,49.75zm0,2l0,49.75l-101.5,0l0,-49.75l101.5,0zm2,0l101.5,0l0,49.75l-101.5,0l0,-49.75zm101.5,51.75l0,49.75l-101.5,0l0,-49.75l101.5,0zm2,0l101.5,0l0,49.75l-101.5,0l0,-49.75zm0,-2l0,-49.75l101.5,0l0,49.75l-101.5,0zm103.5,-49.75l101.5,0l0,49.75l-101.5,0l0,-49.75zm0,-2l0,-49.75l101.5,0l0,49.75l-101.5,0zm-209,-101.5l0,49.75l-101.5,0l0,-49.75l101.5,0zm-101.5,155.25l101.5,0l0,49.75l-101.5,0l0,-49.75zm310.5,49.75l0,-49.75l101.5,0l0,49.75l-101.5,0z" fill="#061105" id="svg_11"/>
  <path d="m196.94947,179.78568l-41.39272,-0.93718c-4.14034,-16.03871 -2.27631,-31.30987 1.0277,-45.38227l41.39252,0.93715a90.6291,90.6291 0 0 0 -1.0275,45.3823z" fill="#eb5027" id="svg_12"/>
  <polygon points="163.676 143.496 163.698 141.921 185.143 142.687 185.12 144.262 163.676 143.496" fill="#fff" id="svg_13"/>
  <polygon points="163.586 149.796 163.608 148.221 185.052 148.988 185.03 150.563 163.586 149.796" fill="#fff" id="svg_14"/>
  <polygon points="163.495 156.096 163.518 154.521 184.962 155.288 184.94 156.863 163.495 156.096" fill="#fff" id="svg_15"/>
  <polygon points="163.405 162.396 163.427 160.821 184.872 161.588 184.849 163.163 163.405 162.396" fill="#fff" id="svg_16"/>
  <polygon points="163.315 168.696 163.337 167.121 184.782 167.888 184.759 169.463 163.315 168.696" fill="#fff" id="svg_17"/>
  <path d="m106.94947,295.78568l-41.39272,-0.93718c-4.14034,-16.03871 -2.27631,-31.30987 1.0277,-45.38227l41.39252,0.93715a90.6291,90.6291 0 0 0 -1.0275,45.3823z" fill="#7f7f7f" id="svg_18"/>
  <polygon points="73.676 259.496 73.698 257.921 95.143 258.687 95.12 260.262 73.676 259.496" fill="#fff" id="svg_19"/>
  <polygon points="73.586 265.796 73.608 264.221 95.052 264.988 95.03 266.563 73.586 265.796" fill="#fff" id="svg_20"/>
  <polygon points="73.495 272.096 73.518 270.521 94.962 271.288 94.94 272.863 73.495 272.096" fill="#fff" id="svg_21"/>
  <polygon points="73.405 278.396 73.427 276.821 94.872 277.588 94.849 279.163 73.405 278.396" fill="#fff" id="svg_22"/>
  <polygon points="73.315 284.696 73.337 283.121 94.782 283.888 94.759 285.463 73.315 284.696" fill="#fff" id="svg_23"/>
  <path d="m322.94947,242.78568l-41.39272,-0.93718c-4.14034,-16.03871 -2.27631,-31.30987 1.0277,-45.38227l41.39252,0.93715a90.6291,90.6291 0 0 0 -1.0275,45.3823z" fill="#7f7f7f" id="svg_24"/>
  <polygon points="289.676 206.496 289.698 204.921 311.143 205.687 311.12 207.262 289.676 206.496" fill="#fff" id="svg_25"/>
  <polygon points="289.586 212.796 289.608 211.221 311.052 211.988 311.03 213.563 289.586 212.796" fill="#fff" id="svg_26"/>
  <polygon points="289.495 219.096 289.518 217.521 310.962 218.288 310.94 219.863 289.495 219.096" fill="#fff" id="svg_27"/>
  <polygon points="289.405 225.396 289.427 223.821 310.872 224.588 310.849 226.163 289.405 225.396" fill="#fff" id="svg_28"/>
  <polygon points="289.315 231.696 289.337 230.121 310.782 230.888 310.759 232.463 289.315 231.696" fill="#fff" id="svg_29"/>
  <path d="m304.94947,232.78568l-41.39272,-0.93718c-4.14034,-16.03871 -2.27631,-31.30987 1.0277,-45.38227l41.39252,0.93715a90.6291,90.6291 0 0 0 -1.0275,45.3823z" fill="#eb5027" id="svg_30"/>
  <polygon points="271.676 196.496 271.698 194.921 293.143 195.687 293.12 197.262 271.676 196.496" fill="#fff" id="svg_31"/>
  <polygon points="271.586 202.796 271.608 201.221 293.052 201.988 293.03 203.563 271.586 202.796" fill="#fff" id="svg_32"/>
  <polygon points="271.495 209.096 271.518 207.521 292.962 208.288 292.94 209.863 271.495 209.096" fill="#fff" id="svg_33"/>
  <polygon points="271.405 215.396 271.427 213.821 292.872 214.588 292.849 216.163 271.405 215.396" fill="#fff" id="svg_34"/>
  <polygon points="271.315 221.696 271.337 220.121 292.782 220.888 292.759 222.463 271.315 221.696" fill="#fff" id="svg_35"/>
  <path d="m457.61559,324.13529l-41.39273,-0.93718c-4.14034,-16.03871 -2.27631,-31.30987 1.02771,-45.38227l41.39251,0.93715a90.6291,90.6291 0 0 0 -1.02749,45.3823z" fill="#eb5027" id="svg_36"/>
  <polygon points="424.342 287.845 424.365 286.27 445.809 287.037 445.786 288.612 424.342 287.845" fill="#fff" id="svg_37"/>
  <polygon points="424.252 294.145 424.274 292.57 445.719 293.337 445.696 294.912 424.252 294.145" fill="#fff" id="svg_38"/>
  <polygon points="424.161 300.446 424.184 298.871 445.628 299.637 445.606 301.212 424.161 300.446" fill="#fff" id="svg_39"/>
  <polygon points="424.071 306.746 424.094 305.171 445.538 305.937 445.515 307.512 424.071 306.746" fill="#fff" id="svg_40"/>
  <polygon points="423.981 313.046 424.003 311.471 445.448 312.238 445.425 313.813 423.981 313.046" fill="#fff" id="svg_41"/>
  <path d="m412.94947,187.78568l-41.39272,-0.93718c-4.14034,-16.03871 -2.27631,-31.30987 1.0277,-45.38227l41.39252,0.93715a90.6291,90.6291 0 0 0 -1.0275,45.3823z" fill="#7f7f7f" id="svg_42"/>
  <polygon points="379.676 151.496 379.698 149.921 401.143 150.687 401.12 152.262 379.676 151.496" fill="#fff" id="svg_43"/>
  <polygon points="379.586 157.796 379.608 156.221 401.052 156.988 401.03 158.563 379.586 157.796" fill="#fff" id="svg_44"/>
  <polygon points="379.495 164.096 379.518 162.521 400.962 163.288 400.94 164.863 379.495 164.096" fill="#fff" id="svg_45"/>
  <polygon points="379.405 170.396 379.427 168.821 400.872 169.588 400.849 171.163 379.405 170.396" fill="#fff" id="svg_46"/>
  <polygon points="379.315 176.696 379.337 175.121 400.782 175.888 400.759 177.463 379.315 176.696" fill="#fff" id="svg_47"/>
  <path d="m455.3834,290.69012a10.05579,10.05579 0 0 0 6.786,-13.84578l26.09919,-24.4093l-18.0556,-4.33922l-22.01607,23.84474a10.11028,10.11028 0 0 0 7.1865,18.74956l-0.00002,0z" fill="#ffb6b6" id="svg_48"/>
  <path d="m468.86596,271.02829l-12.17171,-17.16138l45.71846,-47.28659l10.61553,-74.53553a25.35292,25.35292 0 0 1 33.19643,-20.44981l0,0a25.37994,25.37994 0 0 1 15.92679,32.12217l-27.08463,80.35815l-66.20087,46.95299z" fill="#e4e4e4" id="svg_49"/>
  <polygon points="554.708 588.617 541.196 588.616 534.768 536.499 554.711 536.5 554.708 588.617" fill="#ffb6b6" id="svg_50"/>
  <path d="m561.97697,614.27258l-9.58777,0l-1.71137,-9.052l-4.38308,9.052l-25.429,0a5.71622,5.71622 0 0 1 -3.24815,-10.42013l20.30688,-14.02466l0,-9.15125l21.35929,1.27486l2.6932,32.32118z" fill="#2f2e41" id="svg_51"/>
  <polygon points="638.069 574.867 626.2 581.325 595.643 538.619 613.16 529.088 638.069 574.867" fill="#ffb6b6" id="svg_52"/>
  <path d="m656.716,593.92796l-8.42164,4.58269l-5.82984,-7.133l0.47662,10.046l-22.33622,12.1544a5.71622,5.71622 0 0 1 -7.83363,-7.60025l11.13363,-22.025l-4.37405,-8.03822l19.37081,-9.08937l17.81432,27.10275z" fill="#2f2e41" id="svg_53"/>
  <path d="m560.40059,570.05821l-27.92362,0l0,-99.43457l-17.28711,-64.82617a371.10613,371.10613 0 0 1 -9.709,-142.30127l0.02417,-0.19482l0.15015,-0.126c0.44385,-0.373 44.68872,-36.957 72.67529,-8.9707c18.864,18.86425 1.13843,86.6958 0.14649,90.41894l0,116.93459l-18.07637,108.5z" fill="#2f2e41" id="svg_54"/>
  <path d="m496.97697,281.55821l9,-90c-1.16919,-2.4541 -18,-18 -0.40186,-45.33252l19.0083,-44.61767l35.59741,-0.55323l0.14966,0.14991a71.70284,71.70284 0 0 1 19.6482,64.894l-10.48926,52.44727l9.08838,36.354l-81.60083,26.65824z" fill="#eb5027" id="svg_55"/>
  <polygon points="543.742 471.137 601.106 551.824 623.111 536.179 575.202 437.728 543.742 471.137" fill="#2f2e41" id="svg_56"/>
  <circle cx="539.05571" cy="59.66845" r="32.87" fill="#ffb6b6" id="svg_57"/>
  <polygon points="530.977 178.558 539.977 232.558 530.977 277.558 512.977 277.558 521.159 232.558 530.977 178.558" opacity="0.1" id="svg_58"/>
  <path d="m539.56359,323.92329a10.05579,10.05579 0 0 0 -0.53235,-15.41014l11.5323,-33.82285l-17.97207,4.67314l-8.196,31.40231a10.11027,10.11027 0 0 0 15.16812,13.15754z" fill="#ffb6b6" id="svg_59"/>
  <path d="m542.20059,300.22911l-18.81836,-9.40918l18.06936,-63.24316l-25.729,-70.75489a25.35292,25.35292 0 0 1 19.658,-33.67138l0,0a25.38,25.38 0 0 1 29.17523,20.83979l13.94117,83.646l-36.2964,72.59282z" fill="#eb5027" id="svg_60"/>
  <path d="m801.19718,613.79765a1.18663,1.18663 0 0 1 -1.18994,1.19l-647.29,0a1.19,1.19 0 1 1 0,-2.38l647.29,0a1.193,1.193 0 0 1 1.18994,1.19z" fill="#0f0404" id="svg_61"/>
  <path d="m666.8943,58.06121c-4.147,6.73212 -12.93122,9.69989 -20.72236,8.35193c-7.79113,-1.3479 -14.56121,-6.37658 -19.56158,-12.50146c-5.00043,-6.12494 -8.45929,-13.33454 -11.8631,-20.47119c-3.40381,-7.13672 -6.84692,-14.35181 -11.82226,-20.497c-4.97535,-6.14527 -11.70966,-11.21259 -19.48957,-12.624c-4.23407,-0.76812 -9.02972,-0.261 -12.11914,2.73444a11.80248,11.80248 0 0 0 -3.2381,8.3313a8.70266,8.70266 0 0 0 -11.58221,8.63678c-0.11523,-0.0022 -0.22913,-0.00983 -0.34436,-0.00983c-14.49615,-8.24164 -36.4989,-3.45392 -36.4989,5.54608c-7.9541,0 -17.67578,7.85529 -17.67578,19.78363l0,0.00006c16.44848,0 26.12823,21.07471 16.52612,36.18561a103.28775,103.28775 0 0 1 -8.18018,11.0307l20.56871,0a17.13739,17.13739 0 0 0 3.01819,-8.37134a38.50432,38.50432 0 0 1 1.34637,8.37134s56.18494,7.23975 41.68341,-48.76294a5.868,5.868 0 0 0 2.71784,-0.82373c2.18976,-1.31976 3.38232,-4.111 3.59112,-6.9433q0.813,0.21735 1.62116,0.43366c3.86566,1.04352 7.88092,2.39563 10.53418,5.39441c4.48419,5.06817 3.54095,12.76068 5.16919,19.3291c1.96362,7.92108 7.83789,14.32794 14.36352,19.22845c7.01123,5.26514 15.20142,9.26526 23.93006,10.09559c8.7287,0.83032 18.01672,-1.824 24.06482,-8.17218s8.15414,-16.57463 3.96285,-24.27611z" fill="#2f2e41" id="svg_62"/>
 </g>

</svg>