<svg width="722.45196" height="364.19648" xmlns="http://www.w3.org/2000/svg" data-name="Layer 1">

 <g>
  <title>Layer 1</title>
  <path id="svg_1" fill="#fff" d="m652.68309,296.23111l-549.3087,0a26.51638,26.51638 0 0 1 -26.48658,-26.48658l0,-208.43789a26.51674,26.51674 0 0 1 26.48658,-26.48658l549.3087,0a26.51674,26.51674 0 0 1 26.48658,26.48658l0,208.43789a26.51638,26.51638 0 0 1 -26.48658,26.48658z"/>
  <path id="svg_2" fill="#061105" d="m652.68309,296.23111l-549.3087,0a26.51638,26.51638 0 0 1 -26.48658,-26.48658l0,-208.43789a26.51674,26.51674 0 0 1 26.48658,-26.48658l549.3087,0a26.51674,26.51674 0 0 1 26.48658,26.48658l0,208.43789a26.51638,26.51638 0 0 1 -26.48658,26.48658zm-549.3087,-259.10787a24.1834,24.1834 0 0 0 -24.1834,24.1834l0,208.43789a24.1834,24.1834 0 0 0 24.1834,24.1834l549.3087,0a24.1834,24.1834 0 0 0 24.1834,-24.1834l0,-78.59229a154.029,154.029 0 0 0 -154.02895,-154.029l-419.46315,0z"/>
  <ellipse id="svg_3" transform="rotate(-81.7217 -588.121 544.086)" fill="#fff" ry="4.06109" rx="2.82511" cy="1152.00752" cx="-293.45551"/>
  <ellipse id="svg_4" transform="rotate(-81.7217 -562.949 568.029)" fill="#3f3d56" ry="4.06109" rx="2.8251" cy="1173.37202" cx="-241.85721"/>
  <ellipse id="svg_5" transform="rotate(-81.7217 -573.145 518.612)" fill="#ff6584" ry="4.06109" rx="2.82511" cy="1105.13975" cx="-285.71515"/>
  <ellipse id="svg_6" transform="rotate(-89.5667 -541.016 584.233)" fill="#e6e6e6" ry="1.78547" rx="2.56661" cy="1162.56911" cx="-262.83569"/>
  <ellipse id="svg_7" transform="rotate(-89.5667 -528.559 564.141)" fill="#3f3d56" ry="1.78547" rx="2.56661" cy="1126.15406" cx="-254.27247"/>
  <ellipse id="svg_8" transform="rotate(-89.5667 -527.232 622.93)" fill="#e6e6e6" ry="1.78547" rx="2.56661" cy="1213.66907" cx="-222.66475"/>
  <ellipse id="svg_9" transform="rotate(-89.5667 -546.281 616.488)" fill="#ff6584" ry="1.78547" rx="2.56661" cy="1213.60304" cx="-254.48404"/>
  <ellipse id="svg_10" transform="rotate(-89.5667 -540.424 645.959)" fill="#3f3d56" ry="1.78547" rx="2.56661" cy="1254.85855" cx="-230.84979"/>
  <ellipse id="svg_11" transform="rotate(-75.7793 198.373 842.589)" fill="#fff" ry="5.1766" rx="3.60111" cy="1116.96005" cx="1130.45551"/>
  <ellipse id="svg_12" transform="rotate(-75.7793 173.054 809.618)" fill="#3f3d56" ry="5.1766" rx="3.60111" cy="1083.7708" cx="1071.29359"/>
  <ellipse id="svg_13" transform="rotate(-75.7793 175.945 869.926)" fill="#ff6584" ry="5.1766" rx="3.60111" cy="1172.37571" cx="1114.37919"/>
  <ellipse id="svg_14" transform="rotate(-83.6243 292.799 954.489)" fill="#e6e6e6" ry="2.2759" rx="3.27161" cy="1268.54503" cx="1241.87864"/>
  <ellipse id="svg_15" fill="#3f3d56" transform="matrix(0.11105, -0.99382, 0.99382, 0.11105, 274.19651, 976.10735)" ry="2.2759" rx="3.27161" cy="335.26393" cx="951.86235"/>
  <ellipse id="svg_16" transform="rotate(-83.6243 283.604 905.793)" fill="#e6e6e6" ry="2.2759" rx="3.27161" cy="1200.64122" cx="1200.86649"/>
  <ellipse id="svg_17" transform="rotate(-83.6243 305.104 917.032)" fill="#ff6584" ry="2.2759" rx="3.27161" cy="1205.4813" cx="1239.39735"/>
  <ellipse id="svg_18" transform="rotate(-83.6243 303.631 880.812)" fill="#3f3d56" ry="2.2759" rx="3.27161" cy="1151.97537" cx="1216.94241"/>
  <path id="svg_19" fill="#7f7f7f" d="m296.60065,161.28378a84.29076,84.29076 0 0 1 -21.6269,56.497l0,0.01153a86.56041,86.56041 0 0 1 -6.2416,6.26465a83.40511,83.40511 0 0 1 -7.02468,5.70039q-2.5566,1.8655 -5.25125,3.52387q-3.19572,1.98642 -6.5756,3.67357q-2.50473,1.261 -5.11307,2.34922a84.48558,84.48558 0 0 1 -32.78575,6.59859a84.49842,84.49842 0 0 1 -18.89764,-2.11888a81.105,81.105 0 0 1 -8.47569,-2.41839c-1.071,-0.357 -2.14194,-0.74849 -3.20145,-1.163a83.49857,83.49857 0 0 1 -18.13755,-9.731a84.61752,84.61752 0 1 1 133.33118,-69.18758l0,0.00003z"/>
  <path id="svg_20" fill="#eb5027" d="m549.85852,98.38201l-146.252,0a4.60637,4.60637 0 0 1 0,-9.21273l146.252,0a4.60636,4.60636 0 0 1 0,9.21273z"/>
  <path id="svg_21" fill="#eb5027" d="m549.85852,160.5679l-146.252,0a4.60637,4.60637 0 0 1 0,-9.21273l146.252,0a4.60637,4.60637 0 0 1 0,9.21273z"/>
  <path id="svg_22" fill="#eb5027" d="m549.85852,222.75379l-146.252,0a4.60637,4.60637 0 0 1 0,-9.21273l146.252,0a4.60636,4.60636 0 0 1 0,9.21273z"/>
  <path id="svg_23" fill="#e6e6e6" d="m184.22054,360.17452c-16.51077,-21.96123 -26.0537,-46.51942 -26.36641,-74.51777a6.04123,6.04123 0 0 1 3.676,-7.70163l56.27746,-19.91249a6.04122,6.04122 0 0 1 7.70161,3.676l26.3664,74.51777a6.04122,6.04122 0 0 1 -3.67591,7.70163l-56.27751,19.91244a6.04123,6.04123 0 0 1 -7.70164,-3.67595z"/>
  <path id="svg_24" fill="#fff" d="m180.57361,336.13963c-9.93022,-10.04034 -14.1809,-27.94788 -16.95072,-47.90679a5.65767,5.65767 0 0 1 3.44264,-7.21281l48.36574,-17.11311a5.65791,5.65791 0 0 1 7.21308,3.44253l23.46251,66.31069a5.6579,5.6579 0 0 1 -3.4429,7.2129l-29.96157,10.6012a25.202,25.202 0 0 1 -32.12878,-15.33461z"/>
  <path id="svg_25" fill="#eb5027" d="m223.29176,303.07134l-37.67558,13.44828a2.40023,2.40023 0 1 1 -1.6138,-4.52107l37.6756,-13.44831a2.40023,2.40023 0 1 1 1.6138,4.52107l-0.00002,0.00003z"/>
  <path id="svg_26" fill="#eb5027" d="m189.47972,301.16405l-8.28863,2.95863a2.40023,2.40023 0 1 1 -1.61379,-4.52107l8.28863,-2.95863a2.40023,2.40023 0 1 1 1.61379,4.52107z"/>
  <path id="svg_27" fill="#eb5027" d="m230.38642,322.94714l-37.67558,13.44829a2.40023,2.40023 0 0 1 -1.61379,-4.52107l37.67558,-13.44829a2.40023,2.40023 0 0 1 1.61379,4.52107z"/>
  <path id="svg_28" fill="#eb5027" d="m226.83909,313.00924l-37.67558,13.44829a2.40023,2.40023 0 0 1 -1.6138,-4.52107l37.67559,-13.44829a2.40023,2.40023 0 1 1 1.61379,4.52107z"/>
  <path id="svg_29" fill="#2f2e41" d="m192.62763,123.00056c1.22689,9.89882 8.086,18.06055 18.06055,18.06055a18.06055,18.06055 0 0 0 18.06055,-18.06055c0,-9.97457 -8.12874,-17.13836 -18.06055,-18.06055c-10.53826,-0.97851 -19.63573,5.3517 -18.06055,18.06055z"/>
  <path id="svg_30" fill="#2f2e41" d="m226.4112,244.67049a85.23361,85.23361 0 0 1 -33.327,-0.88674c5.19365,-2.86745 20.9474,-1.10551 33.327,0.88674z"/>
  <path id="svg_31" fill="#ffb6b6" d="m156.11728,276.43812l8.67549,-20.96573l6.83522,3.79734l-4.1279,21.32748a7.5956,7.5956 0 1 1 -11.38281,-4.15909z"/>
  <path id="svg_32" fill="#eb5027" d="m245.86158,219.70395l0,0.01153c-0.311,7.30111 -0.737,14.24517 -1.094,19.58856a84.48558,84.48558 0 0 1 -32.78575,6.59859a84.49842,84.49842 0 0 1 -18.89764,-2.11888a81.105,81.105 0 0 1 -8.47569,-2.41839a5.22916,5.22916 0 0 1 1.24374,-0.58725c4.1457,-1.405 0.046,-2.68322 0.08062,-4.01911c0.12666,-4.88273 1.474,-10.74429 3.21291,-16.36406l-7.73879,19.80738l-4.03057,10.29522s0.13826,8.89024 -2.41831,6.17251c-2.568,-2.71774 -2.3838,6.08036 -2.3838,6.08036a8.01088,8.01088 0 0 0 -2.02681,2.0959a1.77771,1.77771 0 0 0 -0.24179,1.23221l0,0.01153a1.53922,1.53922 0 0 0 0.64489,0.80613c1.73891,1.17457 -0.76009,4.28388 -1.86558,5.51609c-0.29942,0.33394 -0.49517,0.52976 -0.49517,0.52976l-10.62923,-0.76009l0,-0.20728c0.04611,-1.25519 0.334,-7.86538 1.98077,-9.44306c1.808,-1.73884 0.92126,-4.49116 0.92126,-4.49116s4.72149,-4.18028 1.55462,-7.57748c-1.26672,-1.3704 -0.70245,-9.4891 0.85217,-19.9916c3.3972,-23.17 11.539,-57.948 15.06282,-57.45287a19.54689,19.54689 0 0 1 13.94574,-14.90158l11.4814,-3.15535l2.04979,-8.09571l16.16838,0l2.80988,5.32034l11.78075,5.32041l0.14972,0.06909l0.36851,0.16117l0.13819,0.43761s-0.01153,0.01153 0,0.01153l6.55255,20.57892c2.94811,3.38568 2.83298,23.16999 2.08442,40.93903z"/>
  <path id="svg_33" fill="#ffb6b6" d="m273.39363,261.17143l-10.9483,-19.87361l7.2357,-2.9639l14.07224,16.5491a7.59559,7.59559 0 1 1 -10.35964,6.28841z"/>
  <path id="svg_34" fill="#eb5027" d="m236.57022,157.34794c1.9475,3.49919 19.75792,12.49871 16.67128,21.53373c0,0 16.73218,52.348 18.908,52.00635s4.29947,5.06555 4.29947,5.06555s-0.46158,3.52907 0.89553,2.06253s1.03239,2.37773 1.03239,2.37773s-0.65042,3.39305 1.0727,2.47059s-0.54247,5.57093 -0.54247,5.57093l-10.35527,4.87589l-1.96779,-2.92884s-4.20493,-0.80078 -2.22634,-1.43511s-1.8606,-2.76931 -1.8606,-2.76931s-4.01647,-2.72969 -3.45669,-7.25035s-10.42269,-13.4076 -10.42269,-13.4076c-7.54974,-14.90624 -11.68,-30.21038 -11.66557,-45.9969l-0.38195,-22.17519z"/>
  <circle id="svg_35" fill="#ffb6b6" r="16.01533" cy="126.11822" cx="212.68458"/>
  <path id="svg_36" fill="#2f2e41" d="m196.10081,127.86302c0.50707,3.48013 3.47319,8.33563 2.77855,8.33563s-5.63349,-14.34655 -0.69464,-15.282c3.5824,-0.67853 4.38316,-0.08335 7.73131,-1.53516l-0.47235,0.44458c2.21589,1.61156 5.30008,0.61823 7.82853,-0.43068c2.53544,-1.04195 5.61267,-2.03528 7.83552,-0.43067c1.39622,1.00723 1.98665,2.75769 2.85494,4.24422c0.8683,1.49349 2.47291,2.90358 4.12615,2.44514a3.2662,3.2662 0 0 0 2.08391,-3.23008c-0.007,-1.37537 -1.7979,-2.68377 -1.19476,-3.91776c1.78743,-3.65687 0.18,-6.14945 -3.71633,-7.8702q-2.12556,-0.323 -4.25117,-0.65991a12.05736,12.05736 0 0 1 2.66742,-2.68129a6.095,6.095 0 0 0 -2.1534,-2.75773a6.75958,6.75958 0 0 0 -3.84827,-0.5557q-4.397,0.2292 -8.78717,0.45844a15.50016,15.50016 0 0 0 -6.34894,1.23647c-2.41737,1.24339 -4.00112,3.66766 -5.15424,6.13366c-2.58402,5.54318 -2.17421,10.00278 -1.28506,16.05304z"/>
  <path id="svg_37" fill="#e6e6e6" d="m596.72698,117.35862l-240.85062,0a1,1 0 0 1 0,-2l240.85062,0a1,1 0 0 1 0,2z"/>
  <path id="svg_38" fill="#e6e6e6" d="m596.72698,179.35862l-240.85062,0a1,1 0 0 1 0,-2l240.85062,0a1,1 0 0 1 0,2z"/>
  <path id="svg_39" fill="#e6e6e6" d="m596.72698,241.35813l-240.85062,0a1,1 0 0 1 0,-2l240.85062,0a1,1 0 0 1 0,2z"/>
  <path id="svg_40" fill="#7f7f7f" d="m632.57573,237.39395a36.99814,36.99814 0 0 1 -24.04583,-8.87946c-2.23542,-1.91351 -4.61728,-5.24016 -7.07922,-9.88687a22.61063,22.61063 0 0 1 -0.71712,-19.52a25.94482,25.94482 0 0 1 -4.28456,3.51434l-0.78332,0.52119l-0.04525,-0.93927c-0.0297,-0.61092 -0.04474,-1.21978 -0.04474,-1.80962c0,-3.47617 2.62916,-7.00353 1.41661,-10.21662c-5.11059,-13.54237 -21.3201,-27.00077 2.17243,-47.95951c2.1732,-1.93881 -0.72984,-5.81521 -0.72984,-8.74859c0,-28.74783 40.63049,-78.48249 52.146,-52.1358c14.20149,32.49212 38.66868,29.0167 49.50789,35.72792l0.15724,0.47478l-0.46333,0.18744a27.94531,27.94531 0 0 1 -7.42493,1.97483a35.40687,35.40687 0 0 0 8.27909,0.69359l0.43068,-0.01505l0.1049,0.4186a52.37377,52.37377 0 0 1 1.55456,12.67369l-0.00192,0.46179a23.09253,23.09253 0 0 0 7.62843,17.21859a37.08367,37.08367 0 0 1 12.09848,27.36442c0,6.09444 -4.14211,14.09442 -7.617,19.73247a11.158,11.158 0 0 1 -8.19115,5.24658a10.89679,10.89679 0 0 1 -8.79423,-2.84094a36.036,36.036 0 0 0 6.35491,8.99722l0.47413,0.48854l-0.58868,0.343a36.971,36.971 0 0 1 -18.63752,5.03317l-0.38349,-0.001a36.091,36.091 0 0 0 -25.89133,10.56773a37.27947,37.27947 0 0 1 -26.60189,11.31284z"/>
  <path id="svg_41" fill="#3f3d56" d="m619.84616,295.98834a0.66537,0.66537 0 0 1 -0.65794,-0.57162a222.78689,222.78689 0 0 1 -0.31039,-46.71056c2.29665,-24.51173 9.67211,-59.81725 31.76611,-88.81311a0.66542,0.66542 0 1 1 1.05854,0.80663c-21.90317,28.74547 -29.21917,63.79193 -31.49963,88.13059a221.27956,221.27956 0 0 0 0.30292,46.39887a0.666,0.666 0 0 1 -0.65961,0.7592z"/>
  <path id="svg_42" fill="#3f3d56" d="m637.87617,200.79304a0.66541,0.66541 0 0 1 -0.39173,-1.20367a91.70936,91.70936 0 0 1 20.24621,-10.30643c11.1702,-4.08948 28.15614,-7.79687 45.64287,-2.23145a0.66533,0.66533 0 1 1 -0.40353,1.268c-17.12847,-5.45105 -33.80651,-1.805 -44.78176,2.21325a90.20269,90.20269 0 0 0 -19.92141,10.13315a0.66278,0.66278 0 0 1 -0.39065,0.12715z"/>
  <path id="svg_43" fill="#3f3d56" d="m607.42186,124.94276a0.66541,0.66541 0 0 1 1.17233,-0.4774a91.7099,91.7099 0 0 1 11.7377,19.45143c4.88328,10.84668 9.80428,27.52154 5.51262,45.36366a0.66533,0.66533 0 1 1 -1.29376,-0.31117c4.20339,-17.47655 -0.6343,-33.84872 -5.43247,-44.5061a90.20263,90.20263 0 0 0 -11.54148,-19.13994a0.66277,0.66277 0 0 1 -0.15494,-0.38048z"/>
  <path id="svg_44" fill="#7f7f7f" d="m63.27435,224.08211a36.091,36.091 0 0 0 -25.89137,-10.56773l-0.38349,0.001a36.971,36.971 0 0 1 -18.63751,-5.03314l-0.58868,-0.343l0.47413,-0.48854a36.036,36.036 0 0 0 6.35491,-8.99722a10.89679,10.89679 0 0 1 -8.79423,2.84094a11.158,11.158 0 0 1 -8.19115,-5.24658c-3.47488,-5.63805 -7.617,-13.638 -7.617,-19.73247a37.08367,37.08367 0 0 1 12.09851,-27.36438a23.09253,23.09253 0 0 0 7.62843,-17.21859l-0.00192,-0.46179a52.37377,52.37377 0 0 1 1.55456,-12.67369l0.1049,-0.4186l0.43068,0.015a35.40633,35.40633 0 0 0 8.27909,-0.69358a27.94531,27.94531 0 0 1 -7.42493,-1.97483l-0.46333,-0.18744l0.15724,-0.47478c10.83921,-6.71122 35.3064,-3.2358 49.50789,-35.72792c11.51546,-26.34669 52.14595,23.388 52.14595,52.1358c0,2.93338 -2.903,6.80978 -0.72984,8.74859c23.49253,20.95874 7.283,34.41714 2.17243,47.9595c-1.21255,3.2131 1.41661,6.74046 1.41661,10.21662c0,0.58984 -0.015,1.19871 -0.04474,1.80963l-0.04525,0.93927l-0.78332,-0.52119a25.94435,25.94435 0 0 1 -4.28456,-3.51435a22.61065,22.61065 0 0 1 -0.71712,19.52c-2.46194,4.64671 -4.8438,7.97336 -7.07922,9.88687a36.96338,36.96338 0 0 1 -50.64771,-2.43341l0.00004,0.00001z"/>
  <path id="svg_45" fill="#3f3d56" d="m102.6058,293.98937a0.66538,0.66538 0 0 0 0.65794,-0.57162a222.78689,222.78689 0 0 0 0.31039,-46.71056c-2.29665,-24.51173 -9.67211,-59.81725 -31.76611,-88.81311a0.66542,0.66542 0 1 0 -1.05854,0.80663c21.90317,28.74546 29.21917,63.79193 31.49963,88.13059a221.27956,221.27956 0 0 1 -0.30292,46.39887a0.666,0.666 0 0 0 0.65961,0.7592z"/>
  <path id="svg_46" fill="#3f3d56" d="m84.57579,198.79406a0.6654,0.6654 0 0 0 0.39173,-1.20366a91.70936,91.70936 0 0 0 -20.24621,-10.30643c-11.1702,-4.08948 -28.15614,-7.79687 -45.64287,-2.23145a0.66533,0.66533 0 1 0 0.40353,1.268c17.12847,-5.451 33.80651,-1.80495 44.78176,2.21326a90.20269,90.20269 0 0 1 19.92141,10.13315a0.66284,0.66284 0 0 0 0.39065,0.12713z"/>
  <path id="svg_47" fill="#3f3d56" d="m115.0301,122.94379a0.6654,0.6654 0 0 0 -1.17233,-0.4774a91.7099,91.7099 0 0 0 -11.7377,19.45143c-4.88328,10.84668 -9.80428,27.52154 -5.51262,45.36366a0.66533,0.66533 0 1 0 1.29376,-0.31117c-4.20339,-17.47655 0.6343,-33.84872 5.43247,-44.5061a90.20231,90.20231 0 0 1 11.54148,-19.13997a0.66277,0.66277 0 0 0 0.15494,-0.38045z"/>
 </g>
</svg>